SplineFontDB: 3.0
FontName: OxygenSans-Extra-light
FullName: OxygenSans Extra-light
FamilyName: OxygenSans Extra-light
Weight: Regular
ItalicAngle: 0
UnderlinePosition: 0
UnderlineWidth: 0
Ascent: 800
Descent: 200
UFOAscent: 1706
UFODescent: -342
LayerCount: 2
Layer: 0 0 "Back"  1
Layer: 1 0 "Fore"  0
OS2Version: 0
OS2_WeightWidthSlopeOnly: 0
OS2_UseTypoMetrics: 0
CreationTime: 1345156876
ModificationTime: 1345156876
PfmFamily: 0
TTFWeight: 400
TTFWidth: 5
LineGap: 0
VLineGap: 0
Panose: 0 0 0 0 0 0 0 0 0 0
OS2TypoAscent: 0
OS2TypoAOffset: 1
OS2TypoDescent: 0
OS2TypoDOffset: 1
OS2TypoLinegap: 0
OS2WinAscent: 1987
OS2WinAOffset: 0
OS2WinDescent: 797
OS2WinDOffset: 0
HheadAscent: 0
HheadAOffset: 1
HheadDescent: 0
HheadDOffset: 1
OS2SubXSize: -1002
OS2SubYSize: -925
OS2SubXOff: 0
OS2SubYOff: -115
OS2SupXSize: -1002
OS2SupYSize: -925
OS2SupXOff: 0
OS2SupYOff: -539
OS2StrikeYSize: -38
OS2StrikeYPos: -459
OS2Vendor: 'newt'
Lookup: 258 0 0 "'kern' Horizontal Kerning in Latin lookup 0"  {"'kern' Horizontal Kerning in Latin lookup 0 subtable"  } ['kern' ('latn' <'dflt' > ) ]
DEI: 91125
PickledData: "(dp1
S'org.robofab.glyphOrder'
p2
(S'A'
S'Aacute'
S'Abreve'
S'Acircumflex'
S'Adieresis'
S'Agrave'
S'Amacron'
S'Aogonek'
S'Aring'
S'Aringacute'
S'Atilde'
S'AE'
S'AEacute'
S'uni01E2'
S'B'
S'C'
S'Cacute'
S'Ccaron'
S'Ccedilla'
S'Ccircumflex'
S'Cdotaccent'
S'D'
S'Eth'
S'Dcaron'
S'Dcroat'
S'E'
S'Eacute'
S'Ebreve'
S'Ecaron'
S'Ecircumflex'
S'Edieresis'
S'Edotaccent'
S'Egrave'
S'Emacron'
S'Eogonek'
S'F'
S'G'
S'Gbreve'
S'Gcaron'
S'Gcircumflex'
S'Gcommaaccent'
S'Gdotaccent'
S'H'
S'Hbar'
S'Hcircumflex'
S'I'
S'IJ'
S'Iacute'
S'Ibreve'
S'Icircumflex'
S'Idieresis'
S'Idotaccent'
S'Igrave'
S'Imacron'
S'Iogonek'
S'Itilde'
S'J'
S'Jcircumflex'
S'K'
S'Kcommaaccent'
S'L'
S'Lacute'
S'Lcaron'
S'Lcommaaccent'
S'M'
S'N'
S'Nacute'
S'Ncaron'
S'Ncommaaccent'
S'Eng'
S'Ntilde'
S'O'
S'Oacute'
S'Obreve'
S'Ocircumflex'
S'Odieresis'
S'Ograve'
S'Ohorn'
S'Ohungarumlaut'
S'Omacron'
S'Oslash'
S'Oslashacute'
S'Otilde'

StartChar: .notdef
Encoding: 65536 -1 0
Width: 861
VWidth: 0
Flags: W
LayerCount: 2
Fore
SplineSet
86 329 m 1
 776 329 l 1
 776 660 l 1
 86 660 l 1
 86 329 l 1
172 416 m 1
 172 573 l 1
 690 573 l 1
 690 416 l 1
 172 416 l 1
EndSplineSet
EndChar

StartChar: A
Encoding: 65 65 1
Width: 1129
VWidth: 0
Flags: W
LayerCount: 2
Fore
SplineSet
328 548 m 1
 566 1239 l 1
 813 548 l 1
 328 548 l 1
11 0 m 1
 119 0 l 1
 296 474 l 1
 836 474 l 1
 1015 0 l 1
 1118 0 l 1
 614 1353 l 1
 517 1353 l 1
 11 0 l 1
561 1339 m 0
1021 0 m 0
EndSplineSet
EndChar

StartChar: AE
Encoding: 198 198 2
Width: 2021
VWidth: 0
Flags: W
LayerCount: 2
Fore
SplineSet
1132 1362 m 1
 1173 815 l 1
 1813 815 l 1
 1813 703 l 1
 1190 703 l 1
 1233 111 l 1
 1849 111 l 1
 1860 0 l 1
 1167 0 l 1
 1139 425 l 1
 434 425 l 1
 185 0 l 1
 130 0 l 1
 1019 1474 l 1
 1841 1474 l 1
 1853 1362 l 1
 1132 1362 l 1
1116 535 m 1
 1048 1410 l 1
 496 535 l 1
 1116 535 l 1
1010 1349 m 0
EndSplineSet
EndChar

StartChar: Alpha
Encoding: 913 913 9
Width: 1457
VWidth: 0
Flags: W
LayerCount: 2
Fore
SplineSet
472 550 m 1
 984 550 l 1
 999 508 725 1227 714 1273 c 1
 706 1237 456 504 472 550 c 1
1202 0 m 1
 1026 471 l 1
 426 471 l 1
 241 0 l 1
 163 0 l 1
 668 1349 l 1
 765 1349 l 1
 1274 0 l 1
 1202 0 l 1
728 1349 m 0
EndSplineSet
EndChar

StartChar: Alphatonos
Encoding: 902 902 10
Width: 484
VWidth: 0
Flags: W
LayerCount: 2
Fore
SplineSet
229 485 m 0
 152 485 113 542 113 600 c 0
 113 658 152 715 229 715 c 0
 307 715 346 658 346 600 c 0
 346 542 307 485 229 485 c 0
EndSplineSet
EndChar

StartChar: B
Encoding: 66 66 16
Width: 1209
VWidth: 0
Flags: W
LayerCount: 2
Fore
SplineSet
163 0 m 1
 658 0 l 2
 994 0 1130 153 1130 376 c 0
 1130 539 1031 651 811 704 c 1
 1074 779 1064 969 1064 1025 c 0
 1064 1246 905 1354 555 1354 c 2
 163 1354 l 1
 163 0 l 1
277 89 m 1
 277 669 l 1
 573 669 l 2
 872 669 1016 599 1016 374 c 0
 1016 169 905 89 642 89 c 2
 277 89 l 1
277 756 m 1
 277 1265 l 1
 567 1265 l 2
 825 1265 958 1217 958 1014 c 0
 958 801 833 756 642 756 c 2
 277 756 l 1
EndSplineSet
EndChar

StartChar: Beta
Encoding: 914 914 17
Width: 1225
VWidth: 0
Flags: W
LayerCount: 2
Fore
SplineSet
150 0 m 1
 150 1349 l 1
 475 1349 l 2
 824 1349 978 1246 978 1025 c 0
 978 969 980 776 722 712 c 1
 943 687 1029 539 1029 376 c 0
 1029 153 906 0 570 0 c 2
 150 0 l 1
210 665 m 1
 210 69 l 1
 555 69 l 2
 818 69 957 169 957 374 c 0
 957 599 792 665 493 665 c 2
 210 665 l 1
210 1273 m 1
 210 750 l 1
 569 750 l 2
 761 750 899 801 899 1014 c 0
 899 1217 744 1273 486 1273 c 2
 210 1273 l 1
EndSplineSet
EndChar

StartChar: C
Encoding: 67 67 18
Width: 1189
VWidth: 0
Flags: W
LayerCount: 2
Fore
SplineSet
738 -18 m 0
 917 -18 1070 38 1088 63 c 1
 1056 147 l 1
 964 107 883 74 760 74 c 0
 386 74 213 340 213 675 c 0
 213 1010 387 1274 740 1274 c 0
 858 1274 975 1244 1056 1191 c 1
 1102 1263 l 1
 1024 1323 895 1366 727 1366 c 0
 314 1366 99 1064 99 681 c 0
 99 265 351 -18 738 -18 c 0
596 1349 m 0
596 4 m 0
EndSplineSet
EndChar

StartChar: Chi
Encoding: 935 935 24
Width: 1358
VWidth: 0
Flags: W
LayerCount: 2
Fore
SplineSet
683 677 m 1
 1140 1349 l 1
 1032 1349 l 1
 637 790 l 1
 239 1349 l 1
 142 1349 l 1
 604 674 l 1
 166 0 l 1
 269 0 l 1
 647 564 l 1
 1031 0 l 1
 1123 0 l 1
 683 677 l 1
EndSplineSet
EndChar

StartChar: D
Encoding: 68 68 25
Width: 1358
VWidth: 0
Flags: W
LayerCount: 2
Fore
SplineSet
277 1265 m 1
 277 89 l 1
 551 89 l 2
 951 89 1145 282 1145 675 c 0
 1145 1107 916 1265 526 1265 c 2
 277 1265 l 1
163 0 m 1
 163 1354 l 1
 541 1354 l 2
 970 1354 1259 1156 1259 679 c 0
 1259 229 1000 0 570 0 c 2
 163 0 l 1
654 1349 m 0
654 675 m 0
EndSplineSet
EndChar

StartChar: Dcroat
Encoding: 272 272 27
Width: 1490
VWidth: 0
Flags: W
LayerCount: 2
Fore
SplineSet
384 634 m 1
 384 141 l 1
 671 141 l 2
 1004 141 1202 316 1202 668 c 0
 1202 1097 953 1220 581 1220 c 2
 384 1220 l 1
 384 757 l 1
 604 757 l 1
 604 634 l 1
 384 634 l 1
223 757 m 1
 223 1361 l 1
 561 1361 l 2
 1031 1361 1374 1197 1374 672 c 0
 1374 219 1084 0 654 0 c 2
 223 0 l 1
 223 634 l 1
 116 634 l 1
 116 757 l 1
 223 757 l 1
EndSplineSet
EndChar

StartChar: Delta
Encoding: 916 916 28
Width: 1525
VWidth: 0
Flags: W
LayerCount: 2
Fore
SplineSet
170 0 m 1
 692 1352 l 1
 821 1352 l 1
 1344 0 l 1
 170 0 l 1
1174 111 m 1
 755 1226 l 1
 342 111 l 1
 1174 111 l 1
EndSplineSet
EndChar

StartChar: E
Encoding: 69 69 29
Width: 1067
VWidth: 0
Flags: W
LayerCount: 2
Fore
SplineSet
277 1264 m 1
 277 740 l 1
 894 740 l 1
 894 651 l 1
 277 651 l 1
 277 89 l 1
 969 89 l 1
 960 0 l 1
 163 0 l 1
 163 1353 l 1
 969 1353 l 1
 965 1264 l 1
 277 1264 l 1
530 1349 m 0
957 10 m 0
530 0 m 0
EndSplineSet
EndChar

StartChar: Eng
Encoding: 330 330 38
Width: 1327
VWidth: 0
Flags: W
LayerCount: 2
Fore
SplineSet
792 -293 m 0
 753 -293 703 -292 534 -276 c 1
 513 -201 l 1
 700 -211 688 -212 717 -212 c 0
 1039 -212 1056 -135 1056 167 c 2
 1056 945 l 2
 1056 1206 983 1289 748 1289 c 0
 481 1289 325 1135 233 1009 c 1
 233 0 l 1
 170 0 l 1
 166 1374 l 1
 229 1374 l 1
 241 1150 l 1
 460 1378 617 1396 787 1396 c 0
 1003 1396 1118 1248 1118 947 c 2
 1118 155 l 2
 1118 -118 1110 -293 792 -293 c 0
EndSplineSet
EndChar

StartChar: Epsilon
Encoding: 917 917 40
Width: 1123
VWidth: 0
Flags: W
LayerCount: 2
Fore
SplineSet
232 1263 m 1
 232 740 l 1
 874 740 l 1
 874 651 l 1
 232 651 l 1
 232 86 l 1
 940 86 l 1
 933 0 l 1
 142 0 l 1
 142 1349 l 1
 947 1349 l 1
 943 1263 l 1
 232 1263 l 1
561 1349 m 0
EndSplineSet
EndChar

StartChar: Epsilontonos
Encoding: 904 904 41
Width: 484
VWidth: 0
Flags: W
LayerCount: 2
Fore
SplineSet
229 485 m 0
 152 485 113 542 113 600 c 0
 113 658 152 715 229 715 c 0
 307 715 346 658 346 600 c 0
 346 542 307 485 229 485 c 0
EndSplineSet
EndChar

StartChar: Eta
Encoding: 919 919 42
Width: 1307
VWidth: 0
Flags: W
LayerCount: 2
Fore
SplineSet
1046 744 m 1
 1046 1349 l 1
 1136 1349 l 1
 1136 0 l 1
 1046 0 l 1
 1046 664 l 1
 230 664 l 1
 230 0 l 1
 141 0 l 1
 141 1349 l 1
 230 1349 l 1
 230 744 l 1
 1046 744 l 1
EndSplineSet
EndChar

StartChar: Etatonos
Encoding: 905 905 43
Width: 484
VWidth: 0
Flags: W
LayerCount: 2
Fore
SplineSet
229 485 m 0
 152 485 113 542 113 600 c 0
 113 658 152 715 229 715 c 0
 307 715 346 658 346 600 c 0
 346 542 307 485 229 485 c 0
EndSplineSet
EndChar

StartChar: Eth
Encoding: 208 208 44
Width: 1603
VWidth: 0
Flags: W
LayerCount: 2
Fore
SplineSet
397 663 m 1
 397 95 l 1
 751 95 l 2
 1111 95 1334 279 1334 667 c 0
 1334 1144 1037 1276 654 1276 c 2
 397 1276 l 1
 397 747 l 1
 651 747 l 1
 651 663 l 1
 397 663 l 1
308 750 m 1
 308 1375 l 1
 632 1375 l 2
 1094 1375 1439 1219 1439 675 c 0
 1439 212 1159 -1 733 -1 c 2
 308 -1 l 1
 308 666 l 1
 204 666 l 1
 204 750 l 1
 308 750 l 1
EndSplineSet
EndChar

StartChar: F
Encoding: 70 70 45
Width: 943
VWidth: 0
Flags: W
LayerCount: 2
Fore
SplineSet
281 1264 m 1
 281 722 l 1
 820 722 l 1
 820 639 l 1
 281 639 l 1
 281 0 l 1
 163 0 l 1
 163 1353 l 1
 899 1353 l 1
 890 1264 l 1
 281 1264 l 1
EndSplineSet
EndChar

StartChar: G
Encoding: 71 71 46
Width: 1325
VWidth: 0
Flags: W
LayerCount: 2
Fore
SplineSet
741 -18 m 0
 926 -18 1070 11 1204 60 c 1
 1204 676 l 1
 786 676 l 1
 777 577 l 1
 1090 577 l 1
 1090 121 l 1
 1038 110 899 74 778 74 c 0
 371 74 213 313 213 673 c 0
 213 1009 407 1274 749 1274 c 0
 989 1274 1086 1203 1134 1173 c 1
 1163 1261 l 1
 1065 1340 906 1366 752 1366 c 0
 322 1366 99 1060 99 672 c 0
 99 286 309 -18 741 -18 c 0
663 1349 m 0
663 0 m 0
EndSplineSet
EndChar

StartChar: Gamma
Encoding: 915 915 47
Width: 1005
VWidth: 0
Flags: W
LayerCount: 2
Fore
SplineSet
298 1220 m 1
 298 0 l 1
 136 0 l 1
 136 1361 l 1
 930 1361 l 1
 916 1220 l 1
 298 1220 l 1
EndSplineSet
EndChar

StartChar: H
Encoding: 72 72 53
Width: 1319
VWidth: 0
Flags: W
LayerCount: 2
Fore
SplineSet
277 748 m 1
 277 1353 l 1
 163 1353 l 1
 163 0 l 1
 277 0 l 1
 277 671 l 1
 1042 671 l 1
 1042 0 l 1
 1156 0 l 1
 1156 1353 l 1
 1042 1353 l 1
 1042 748 l 1
 277 748 l 1
660 1349 m 0
660 675 m 0
EndSplineSet
EndChar

StartChar: Hbar
Encoding: 294 294 54
Width: 1569
VWidth: 0
Flags: W
LayerCount: 2
Fore
SplineSet
261 1094 m 1
 261 1378 l 1
 349 1378 l 1
 349 1094 l 1
 1204 1094 l 1
 1204 1378 l 1
 1292 1378 l 1
 1292 1094 l 1
 1379 1094 l 1
 1379 1027 l 1
 1292 1027 l 1
 1292 0 l 1
 1204 0 l 1
 1204 658 l 1
 349 658 l 1
 349 0 l 1
 261 0 l 1
 261 1027 l 1
 173 1027 l 1
 173 1094 l 1
 261 1094 l 1
349 761 m 1
 1204 761 l 1
 1204 1027 l 1
 349 1027 l 1
 349 761 l 1
EndSplineSet
EndChar

StartChar: I
Encoding: 73 73 56
Width: 440
VWidth: 0
Flags: W
LayerCount: 2
Fore
SplineSet
163 0 m 1
 163 1353 l 1
 277 1353 l 1
 277 0 l 1
 163 0 l 1
220 1354 m 0
396 10 m 0
EndSplineSet
EndChar

StartChar: IJ
Encoding: 306 306 57
Width: 1127
VWidth: 0
Flags: W
LayerCount: 2
Fore
SplineSet
141 0 m 1
 141 1349 l 1
 230 1349 l 1
 230 0 l 1
 141 0 l 1
632 -136 m 1
 608 -25 l 1
 579 -21 665 -19 648 -19 c 1
 840 -19 835 98 835 226 c 2
 835 1349 l 1
 925 1349 l 1
 925 268 l 2
 925 0 942 -130 619 -130 c 1
 641 -130 609 -131 632 -136 c 1
EndSplineSet
EndChar

StartChar: Iota
Encoding: 921 921 66
Width: 385
VWidth: 0
Flags: W
LayerCount: 2
Fore
SplineSet
141 0 m 1
 141 1349 l 1
 230 1349 l 1
 230 0 l 1
 141 0 l 1
EndSplineSet
EndChar

StartChar: Iotatonos
Encoding: 906 906 67
Width: 484
VWidth: 0
Flags: W
LayerCount: 2
Fore
SplineSet
229 485 m 0
 152 485 113 542 113 600 c 0
 113 658 152 715 229 715 c 0
 307 715 346 658 346 600 c 0
 346 542 307 485 229 485 c 0
EndSplineSet
EndChar

StartChar: J
Encoding: 74 74 69
Width: 610
VWidth: 0
Flags: W
LayerCount: 2
Fore
SplineSet
131 -131 m 1
 438 -131 447 0 447 268 c 2
 447 1353 l 1
 333 1353 l 1
 333 226 l 2
 333 12 317 -37 115 -37 c 1
 131 -131 l 1
284 1349 m 0
EndSplineSet
EndChar

StartChar: K
Encoding: 75 75 71
Width: 1130
VWidth: 0
Flags: W
LayerCount: 2
Fore
SplineSet
933 1353 m 1
 1068 1353 l 1
 478 760 l 1
 1096 0 l 1
 959 0 l 1
 406 694 l 1
 277 572 l 1
 277 0 l 1
 163 0 l 1
 163 1353 l 1
 277 1353 l 1
 277 694 l 1
 933 1353 l 1
555 1349 m 0
555 0 m 0
EndSplineSet
EndChar

StartChar: L
Encoding: 76 76 73
Width: 868
VWidth: 0
Flags: W
LayerCount: 2
Fore
SplineSet
862 89 m 1
 862 0 l 1
 149 0 l 1
 149 1353 l 1
 263 1353 l 1
 263 89 l 1
 862 89 l 1
443 1349 m 0
443 0 m 0
EndSplineSet
EndChar

StartChar: Lambda
Encoding: 923 923 75
Width: 1525
VWidth: 0
Flags: W
LayerCount: 2
Fore
SplineSet
1192 0 m 1
 756 1210 l 1
 328 0 l 1
 171 0 l 1
 676 1355 l 1
 838 1355 l 1
 1344 0 l 1
 1192 0 l 1
EndSplineSet
EndChar

StartChar: M
Encoding: 77 77 78
Width: 1560
VWidth: 0
Flags: W
LayerCount: 2
Fore
SplineSet
1235 1354 m 1
 1397 1354 l 1
 1397 0 l 1
 1292 0 l 1
 1292 1004 l 1
 1298 1265 l 1
 844 98 l 1
 725 98 l 1
 262 1267 l 1
 270 1000 l 1
 270 0 l 1
 163 0 l 1
 163 1354 l 1
 332 1354 l 1
 785 213 l 1
 1235 1354 l 1
EndSplineSet
EndChar

StartChar: Mu
Encoding: 924 924 79
Width: 1603
VWidth: 0
Flags: W
LayerCount: 2
Fore
SplineSet
1319 1349 m 1
 1441 1349 l 1
 1441 0 l 1
 1357 0 l 1
 1357 910 l 1
 1365 1240 l 1
 1315 1113 l 1
 844 79 l 1
 739 79 l 1
 249 1116 l 1
 200 1243 l 1
 214 905 l 1
 214 0 l 1
 124 0 l 1
 124 1349 l 1
 255 1349 l 1
 784 186 l 1
 1319 1349 l 1
EndSplineSet
EndChar

StartChar: N
Encoding: 78 78 80
Width: 1411
VWidth: 0
Flags: W
LayerCount: 2
Fore
SplineSet
1167 114 m 1
 1167 114 1161 426 1161 497 c 2
 1161 1353 l 1
 1248 1353 l 1
 1248 0 l 1
 1151 0 l 1
 697 625 695 623 246 1253 c 1
 257 844 l 1
 257 0 l 1
 163 0 l 1
 163 1353 l 1
 263 1353 l 1
 719 729 715 743 1167 114 c 1
707 1349 m 0
707 0 m 0
EndSplineSet
EndChar

StartChar: Nu
Encoding: 925 925 85
Width: 1386
VWidth: 0
Flags: W
LayerCount: 2
Fore
SplineSet
1157 110 m 1
 1158 60 1161 322 1161 393 c 2
 1161 1349 l 1
 1214 1349 l 1
 1214 0 l 1
 1133 0 l 1
 679 625 655 617 206 1247 c 1
 206 1247 194 1200 194 1034 c 2
 194 0 l 1
 141 0 l 1
 141 1349 l 1
 226 1349 l 1
 682 725 705 739 1157 110 c 1
EndSplineSet
EndChar

StartChar: O
Encoding: 79 79 86
Width: 1471
VWidth: 0
Flags: W
LayerCount: 2
Fore
SplineSet
1372 664 m 0
 1372 1083 1147 1366 739 1366 c 0
 318 1366 99 1087 99 666 c 0
 99 259 306 -18 738 -18 c 0
 1162 -18 1372 268 1372 664 c 0
737 74 m 0
 366 74 213 319 213 666 c 0
 213 1031 379 1274 738 1274 c 0
 1098 1274 1258 1029 1258 666 c 0
 1258 319 1108 74 737 74 c 0
736 1349 m 0
EndSplineSet
EndChar

StartChar: OE
Encoding: 338 338 87
Width: 1824
VWidth: 0
Flags: W
LayerCount: 2
Fore
SplineSet
802 -24 m 0
 338 -24 149 271 149 719 c 1
 163 1116 409 1403 769 1403 c 0
 914 1403 1038 1354 1093 1291 c 1
 1093 1374 l 1
 1611 1374 l 1
 1598 1277 l 1
 1189 1277 l 1
 1189 750 l 1
 1560 750 l 1
 1560 652 l 1
 1189 652 l 1
 1189 99 l 1
 1630 99 l 1
 1619 -3 l 1
 1093 -3 l 1
 1093 80 l 1
 1082 42 902 -24 802 -24 c 0
806 71 m 1
 907 71 1062 137 1093 145 c 1
 1093 1211 l 1
 1019 1264 910 1308 794 1308 c 0
 473 1308 273 1081 262 723 c 1
 262 357 388 77 806 71 c 1
912 1349 m 0
EndSplineSet
EndChar

StartChar: Omega
Encoding: 937 937 96
Width: 1511
VWidth: 0
Flags: W
LayerCount: 2
Fore
SplineSet
754 -20 m 0
 339 -20 114 251 114 668 c 0
 114 1095 347 1366 755 1366 c 0
 1156 1366 1395 1092 1395 667 c 0
 1395 257 1164 -20 754 -20 c 0
754 118 m 0
 1072 118 1220 349 1220 667 c 0
 1220 997 1066 1228 755 1228 c 0
 444 1228 288 998 288 667 c 0
 288 349 436 118 754 118 c 0
20 1346 m 0
EndSplineSet
EndChar

StartChar: Omegatonos
Encoding: 911 911 97
Width: 484
VWidth: 0
Flags: W
LayerCount: 2
Fore
SplineSet
229 485 m 0
 152 485 113 542 113 600 c 0
 113 658 152 715 229 715 c 0
 307 715 346 658 346 600 c 0
 346 542 307 485 229 485 c 0
EndSplineSet
EndChar

StartChar: Omicron
Encoding: 927 927 98
Width: 1571
VWidth: 0
Flags: W
LayerCount: 2
Fore
SplineSet
767 -23 m 0
 335 -23 132 259 132 666 c 0
 132 1087 347 1371 768 1371 c 0
 1176 1371 1400 1083 1400 664 c 0
 1400 268 1190 -23 767 -23 c 0
766 56 m 0
 1137 56 1310 319 1310 666 c 0
 1310 1029 1127 1293 767 1293 c 0
 408 1293 220 1031 220 666 c 0
 220 319 395 56 766 56 c 0
EndSplineSet
EndChar

StartChar: Omicrontonos
Encoding: 908 908 99
Width: 484
VWidth: 0
Flags: W
LayerCount: 2
Fore
SplineSet
229 485 m 0
 152 485 113 542 113 600 c 0
 113 658 152 715 229 715 c 0
 307 715 346 658 346 600 c 0
 346 542 307 485 229 485 c 0
EndSplineSet
EndChar

StartChar: Oslash
Encoding: 216 216 100
Width: 1654
VWidth: 0
Flags: W
LayerCount: 2
Fore
SplineSet
553 -154 m 1
 433 -119 l 1
 494 44 l 1
 257 163 153 422 153 728 c 0
 153 1183 370 1486 817 1486 c 0
 899 1486 978 1475 1045 1455 c 1
 1109 1626 l 1
 1234 1586 l 1
 1163 1405 l 1
 1378 1286 1484 1047 1484 729 c 0
 1484 307 1291 -26 820 -26 c 0
 741 -26 672 -16 610 2 c 1
 553 -154 l 1
538 160 m 1
 1003 1338 l 1
 945 1356 886 1364 817 1364 c 0
 442 1364 257 1078 257 735 c 0
 257 484 349 264 538 160 c 1
817 101 m 0
 1197 101 1375 393 1375 746 c 0
 1375 978 1291 1184 1120 1294 c 1
 654 121 l 1
 706 106 756 101 817 101 c 0
827 1349 m 0
EndSplineSet
EndChar

StartChar: P
Encoding: 80 80 103
Width: 1072
VWidth: 0
Flags: W
LayerCount: 2
Fore
SplineSet
565 715 m 0
 491 715 256 718 277 718 c 1
 277 1265 l 1
 561 1265 l 2
 734 1265 870 1185 875 1010 c 1
 875 800 760 715 565 715 c 0
277 627 m 1
 348 624 504 626 563 626 c 0
 851 626 989 772 989 1009 c 0
 989 1241 804 1354 568 1354 c 2
 163 1354 l 1
 163 0 l 1
 277 0 l 1
 277 627 l 1
EndSplineSet
EndChar

StartChar: Phi
Encoding: 934 934 104
Width: 1611
VWidth: 0
Flags: W
LayerCount: 2
Fore
SplineSet
871 0 m 1
 721 0 l 1
 721 156 l 1
 328 181 126 409 126 701 c 0
 126 999 343 1207 721 1231 c 1
 721 1355 l 1
 871 1355 l 1
 871 1231 l 1
 1256 1208 1468 999 1468 701 c 0
 1468 407 1265 178 871 156 c 1
 871 0 l 1
721 279 m 1
 721 1108 l 1
 433 1084 287 926 287 701 c 0
 287 483 422 304 721 279 c 1
871 1108 m 1
 871 279 l 1
 1176 303 1308 483 1308 701 c 0
 1308 927 1163 1085 871 1108 c 1
EndSplineSet
EndChar

StartChar: Pi
Encoding: 928 928 105
Width: 1374
VWidth: 0
Flags: W
LayerCount: 2
Fore
SplineSet
1071 0 m 1
 1071 1228 l 1
 295 1228 l 1
 295 0 l 1
 144 0 l 1
 144 1355 l 1
 1220 1355 l 1
 1220 0 l 1
 1071 0 l 1
EndSplineSet
EndChar

StartChar: Psi
Encoding: 936 936 106
Width: 484
VWidth: 0
Flags: W
LayerCount: 2
Fore
SplineSet
229 485 m 0
 152 485 113 542 113 600 c 0
 113 658 152 715 229 715 c 0
 307 715 346 658 346 600 c 0
 346 542 307 485 229 485 c 0
EndSplineSet
EndChar

StartChar: Q
Encoding: 81 81 107
Width: 1466
VWidth: 0
Flags: W
LayerCount: 2
Fore
SplineSet
1203 -321 m 1
 1153 -395 l 1
 1175 -389 954 -169 879 -2 c 1
 837 -10 782 -19 735 -19 c 0
 304 -19 99 267 99 674 c 0
 99 1095 316 1371 736 1371 c 0
 1145 1371 1367 1092 1367 673 c 0
 1367 351 1229 100 956 10 c 1
 959 3 1097 -217 1203 -321 c 1
735 59 m 0
 1105 59 1279 328 1279 674 c 0
 1279 1037 1096 1293 736 1293 c 0
 377 1293 189 1040 189 674 c 0
 189 327 364 59 735 59 c 0
EndSplineSet
EndChar

StartChar: R
Encoding: 82 82 108
Width: 1240
VWidth: 0
Flags: W
LayerCount: 2
Fore
SplineSet
586 775 m 2
 937 775 998 857 998 1031 c 0
 998 1153 967 1264 623 1264 c 2
 277 1264 l 1
 277 775 l 1
 586 775 l 2
163 0 m 1
 163 1353 l 1
 635 1353 l 2
 972 1353 1112 1242 1112 1032 c 0
 1112 819 987 746 861 713 c 1
 861 713 908 594 936 530 c 2
 1164 0 l 1
 1048 0 l 1
 847 482 l 1
 808 572 788 634 751 691 c 1
 718 687 592 685 563 685 c 0
 277 685 l 1
 277 0 l 1
 163 0 l 1
627 1349 m 0
627 0 m 0
EndSplineSet
EndChar

StartChar: Rho
Encoding: 929 929 112
Width: 1154
VWidth: 0
Flags: W
LayerCount: 2
Fore
SplineSet
142 0 m 1
 142 1349 l 1
 506 1349 l 2
 733 1349 927 1237 927 1019 c 0
 927 758 767 626 469 626 c 0
 410 626 302 636 232 642 c 1
 232 0 l 1
 142 0 l 1
503 715 m 0
 704 715 837 795 837 1019 c 0
 837 1194 672 1253 498 1253 c 2
 232 1253 l 1
 232 731 l 1
 211 732 429 715 503 715 c 0
EndSplineSet
EndChar

StartChar: S
Encoding: 83 83 113
Width: 1053
VWidth: 0
Flags: W
LayerCount: 2
Fore
SplineSet
521 -19 m 0
 762 -19 953 71 968 343 c 0
 981 583 785 661 639 720 c 2
 426 806 l 2
 267 870 215 916 221 1049 c 0
 229 1233 393 1274 547 1274 c 0
 714 1274 830 1197 857 1178 c 1
 909 1249 l 1
 849 1300 711 1366 559 1366 c 0
 352 1366 129 1311 115 1044 c 0
 106 865 221 786 396 717 c 2
 618 630 l 2
 820 551 875 468 868 339 c 0
 857 146 737 70 526 73 c 0
 340 75 237 136 146 205 c 1
 101 125 l 1
 148 84 264 -19 521 -19 c 0
537 1349 m 0
537 0 m 0
EndSplineSet
EndChar

StartChar: Sigma
Encoding: 931 931 119
Width: 1123
VWidth: 0
Flags: W
LayerCount: 2
Fore
SplineSet
232 1263 m 1
 232 740 l 1
 874 740 l 1
 874 651 l 1
 232 651 l 1
 232 86 l 1
 940 86 l 1
 933 0 l 1
 142 0 l 1
 142 1349 l 1
 947 1349 l 1
 943 1263 l 1
 232 1263 l 1
EndSplineSet
EndChar

StartChar: T
Encoding: 84 84 120
Width: 1029
VWidth: 0
Flags: W
LayerCount: 2
Fore
SplineSet
993 1353 m 1
 993 1263 l 1
 569 1265 l 1
 569 2 l 1
 455 0 l 1
 455 1263 l 1
 36 1263 l 1
 36 1353 l 1
 993 1353 l 1
518 1349 m 0
518 675 m 0
518 0 m 0
EndSplineSet
EndChar

StartChar: Tau
Encoding: 932 932 121
Width: 1260
VWidth: 0
Flags: W
LayerCount: 2
Fore
SplineSet
1062 1349 m 1
 1062 1263 l 1
 627 1263 l 1
 627 0 l 1
 537 0 l 1
 537 1263 l 1
 98 1263 l 1
 98 1349 l 1
 1062 1349 l 1
EndSplineSet
EndChar

StartChar: Tbar
Encoding: 358 358 122
Width: 1131
VWidth: 0
Flags: W
LayerCount: 2
Fore
SplineSet
484 595 m 1
 484 1220 l 1
 77 1220 l 1
 77 1361 l 1
 1053 1361 l 1
 1053 1220 l 1
 645 1220 l 1
 645 595 l 1
 793 595 l 1
 793 483 l 1
 645 483 l 1
 645 0 l 1
 484 0 l 1
 484 483 l 1
 330 483 l 1
 330 595 l 1
 484 595 l 1
EndSplineSet
EndChar

StartChar: Tcommaaccent
Encoding: 538 538 124
Width: 1261
VWidth: 0
Flags: W
LayerCount: 2
Fore
SplineSet
1173 1479 m 1
 1173 1326 l 1
 725 1326 l 1
 725 0 l 1
 572 0 l 1
 530 -411 l 1
 376 -411 l 1
 488 15 l 1
 533 15 l 1
 533 1326 l 1
 85 1326 l 1
 85 1479 l 1
 1173 1479 l 1
EndSplineSet
EndChar

StartChar: Theta
Encoding: 920 920 125
Width: 484
VWidth: 0
Flags: W
LayerCount: 2
Fore
SplineSet
229 485 m 0
 152 485 113 542 113 600 c 0
 113 658 152 715 229 715 c 0
 307 715 346 658 346 600 c 0
 346 542 307 485 229 485 c 0
EndSplineSet
EndChar

StartChar: Thorn
Encoding: 222 222 126
Width: 1250
VWidth: 0
Flags: W
LayerCount: 2
Fore
SplineSet
244 1384 m 1
 244 1094 l 1
 576 1094 l 2
 929 1094 1075 1003 1075 720 c 0
 1075 494 1010 312 666 312 c 0
 655 312 204 323 244 323 c 1
 244 -11 l 1
 123 -11 l 1
 123 1384 l 1
 244 1384 l 1
244 989 m 1
 243 412 l 1
 639 412 l 2
 908 412 970 544 970 703 c 0
 970 897 886 989 592 989 c 2
 244 989 l 1
EndSplineSet
EndChar

StartChar: U
Encoding: 85 85 127
Width: 1304
VWidth: 0
Flags: W
LayerCount: 2
Fore
SplineSet
651 -18 m 0
 286 -18 127 213 127 502 c 2
 127 1354 l 1
 241 1354 l 1
 241 499 l 2
 241 223 361 74 651 74 c 0
 926 74 1063 222 1063 498 c 2
 1063 1354 l 1
 1177 1354 l 1
 1177 499 l 2
 1177 210 1018 -18 651 -18 c 0
655 1349 m 0
1170 10 m 0
EndSplineSet
EndChar

StartChar: Upsilon
Encoding: 933 933 137
Width: 1359
VWidth: 0
Flags: W
LayerCount: 2
Fore
SplineSet
652 615 m 1
 1089 1349 l 1
 1183 1349 l 1
 709 538 l 1
 709 0 l 1
 598 0 l 1
 598 534 l 1
 123 1349 l 1
 216 1349 l 1
 652 615 l 1
EndSplineSet
EndChar

StartChar: Upsilontonos
Encoding: 910 910 138
Width: 484
VWidth: 0
Flags: W
LayerCount: 2
Fore
SplineSet
229 485 m 0
 152 485 113 542 113 600 c 0
 113 658 152 715 229 715 c 0
 307 715 346 658 346 600 c 0
 346 542 307 485 229 485 c 0
EndSplineSet
EndChar

StartChar: V
Encoding: 86 86 141
Width: 1129
VWidth: 0
Flags: W
LayerCount: 2
Fore
SplineSet
592 0 m 1
 1136 1353 l 1
 1023 1353 l 1
 862 925 676 451 676 451 c 1
 650 389 563 154 563 154 c 1
 563 154 475 383 451 446 c 2
 107 1353 l 1
 -7 1353 l 1
 538 0 l 1
 592 0 l 1
EndSplineSet
EndChar

StartChar: W
Encoding: 87 87 142
Width: 1918
VWidth: 0
Flags: W
LayerCount: 2
Fore
SplineSet
901 1315 m 1
 1018 1315 l 1
 1391 116 l 1
 1764 1353 l 1
 1873 1353 l 1
 1447 0 l 1
 1333 0 l 1
 966 1217 l 1
 588 0 l 1
 477 0 l 1
 45 1353 l 1
 150 1353 l 1
 530 116 l 1
 901 1315 l 1
959 1349 m 0
EndSplineSet
EndChar

StartChar: X
Encoding: 88 88 147
Width: 1020
VWidth: 0
Flags: W
LayerCount: 2
Fore
SplineSet
578 661 m 1
 1009 1353 l 1
 897 1353 l 1
 516 726 l 1
 114 1353 l 1
 11 1353 l 1
 452 669 l 1
 27 0 l 1
 132 0 l 1
 516 599 l 1
 909 0 l 1
 1009 0 l 1
 578 661 l 1
EndSplineSet
EndChar

StartChar: Xi
Encoding: 926 926 148
Width: 484
VWidth: 0
Flags: W
LayerCount: 2
Fore
SplineSet
229 485 m 0
 152 485 113 542 113 600 c 0
 113 658 152 715 229 715 c 0
 307 715 346 658 346 600 c 0
 346 542 307 485 229 485 c 0
EndSplineSet
EndChar

StartChar: Y
Encoding: 89 89 149
Width: 1064
VWidth: 0
Flags: W
LayerCount: 2
Fore
SplineSet
536 644 m 1
 923 1353 l 1
 1029 1353 l 1
 593 572 l 1
 593 0 l 1
 479 0 l 1
 479 568 l 1
 7 1353 l 1
 112 1353 l 1
 536 644 l 1
531 1349 m 0
EndSplineSet
EndChar

StartChar: Z
Encoding: 90 90 154
Width: 1080
VWidth: 0
Flags: W
LayerCount: 2
Fore
SplineSet
127 1353 m 1
 127 1264 l 1
 881 1264 l 1
 85 94 l 1
 85 0 l 1
 995 0 l 1
 1006 89 l 1
 198 89 l 1
 1000 1269 l 1
 991 1353 l 1
 127 1353 l 1
558 1349 m 0
EndSplineSet
EndChar

StartChar: Zeta
Encoding: 918 918 158
Width: 1234
VWidth: 0
Flags: W
LayerCount: 2
Fore
SplineSet
170 1349 m 1
 1036 1349 l 1
 1036 1279 l 1
 242 87 l 1
 1042 87 l 1
 1035 0 l 1
 142 0 l 1
 142 92 l 1
 919 1261 l 1
 171 1261 l 1
 170 1349 l 1
EndSplineSet
EndChar

StartChar: a
Encoding: 97 97 159
Width: 1045
VWidth: 0
Flags: W
LayerCount: 2
Fore
SplineSet
429 -14 m 0
 550 -14 687 16 802 169 c 1
 822 4 l 1
 902 4 l 1
 902 656 l 2
 902 918 746 1005 523 1005 c 0
 410 1005 261 968 186 923 c 1
 194 900 213 864 223 842 c 1
 312 891 442 919 543 919 c 0
 714 919 791 828 791 676 c 2
 791 570 l 1
 791 570 657 562 623 560 c 0
 320 542 122 458 122 249 c 0
 122 74 249 -14 429 -14 c 0
419 72 m 0
 329 72 234 115 234 246 c 0
 234 401 329 442 650 483 c 0
 689 488 791 497 791 497 c 1
 791 299 l 1
 711 114 581 72 419 72 c 0
523 986 m 0
940 10 m 0
EndSplineSet
EndChar

StartChar: acute
Encoding: 180 180 163
Width: 611
VWidth: 0
Flags: W
LayerCount: 2
Fore
SplineSet
81 1176 m 1
 258 1523 l 1
 441 1523 l 1
 145 1176 l 1
 81 1176 l 1
261 986 m 0
EndSplineSet
EndChar

StartChar: afii10018
Encoding: 1041 1041 166
Width: 1198
VWidth: 0
Flags: W
LayerCount: 2
Fore
SplineSet
308 688 m 1
 308 80 l 1
 662 80 l 2
 875 80 964 177 964 385 c 0
 964 597 873 688 649 688 c 2
 308 688 l 1
1078 389 m 0
 1078 181 1026 0 656 0 c 2
 198 0 l 1
 198 1353 l 1
 952 1353 l 1
 952 1267 l 1
 308 1267 l 1
 308 766 l 1
 650 766 l 2
 1018 766 1078 588 1078 389 c 0
EndSplineSet
EndChar

StartChar: afii10020
Encoding: 1043 1043 168
Width: 869
VWidth: 0
Flags: W
LayerCount: 2
Fore
SplineSet
1038 1252 m 1
 1045 1353 l 1
 198 1353 l 1
 198 0 l 1
 308 0 l 1
 308 1252 l 1
 1038 1252 l 1
435 1349 m 0
EndSplineSet
EndChar

StartChar: afii10021
Encoding: 1044 1044 169
Width: 1368
VWidth: 0
Flags: W
LayerCount: 2
Fore
SplineSet
482 1205 m 1
 978 1205 l 1
 978 138 l 1
 317 138 l 1
 391 257 410 471 456 938 c 1
 460 989 476 1142 482 1202 c 1
 482 1205 l 1
126 -275 m 1
 126 0 l 1
 1145 0 l 1
 1145 -275 l 1
 1306 -275 l 1
 1306 138 l 1
 1152 138 l 1
 1152 1346 l 1
 321 1346 l 1
 311 1238 298 1109 289 1019 c 0
 223 353 198 199 112 138 c 1
 -38 138 l 1
 -38 -275 l 1
 126 -275 l 1
EndSplineSet
EndChar

StartChar: afii10022
Encoding: 1045 1045 170
Width: 1067
VWidth: 0
Flags: W
LayerCount: 2
Fore
SplineSet
538 1346 m 0
EndSplineSet
Refer: 29 69 N 1 0 0 1 0 0 2
EndChar

StartChar: afii10024
Encoding: 1046 1046 171
Width: 1851
VWidth: 0
Flags: W
LayerCount: 2
Fore
SplineSet
832 0 m 1
 1006 0 l 1
 1006 600 l 1
 1535 0 l 1
 1744 0 l 1
 1147 668 l 1
 1673 1346 l 1
 1477 1346 l 1
 1006 733 l 1
 1006 1346 l 1
 832 1346 l 1
 832 735 l 1
 362 1346 l 1
 166 1346 l 1
 692 668 l 1
 95 0 l 1
 304 0 l 1
 832 599 l 1
 832 0 l 1
EndSplineSet
EndChar

StartChar: afii10026
Encoding: 1048 1048 172
Width: 1525
VWidth: 0
Flags: W
LayerCount: 2
Fore
SplineSet
277 83 m 1
 277 83 286 -35 286 41 c 1
 466 1353 l 1
 198 2232 l 1
 28 0 l 1
 -135 -552 l 1
 319 73 783 1239 1232 1869 c 1
 1232 1869 1044 1483 1044 1304 c 2
 1044 -879 l 1
 1484 -879 l 1
 1486 1357 l 1
 1491 1365 1191 1416 1193 1422 c 1
 779 853 651 616 277 83 c 1
762 1349 m 0
EndSplineSet
EndChar

StartChar: afii10029
Encoding: 1051 1051 174
Width: 1248
VWidth: 0
Flags: W
LayerCount: 2
Fore
SplineSet
914 0 m 1
 914 1205 l 1
 391 1205 l 1
 389 1148 380 991 378 939 c 0
 337 123 323 -10 -30 -46 c 1
 -60 91 l 1
 145 144 160 94 207 1019 c 0
 212 1109 219 1238 224 1346 c 1
 1088 1346 l 1
 1088 0 l 1
 914 0 l 1
EndSplineSet
EndChar

StartChar: afii10033
Encoding: 1055 1055 176
Width: 1436
VWidth: 0
Flags: W
LayerCount: 2
Fore
SplineSet
308 1252 m 1
 1111 1252 l 1
 1111 0 l 1
 1221 0 l 1
 1221 1353 l 1
 198 1353 l 1
 198 0 l 1
 308 0 l 1
 308 1252 l 1
EndSplineSet
EndChar

StartChar: afii10037
Encoding: 1059 1059 178
Width: 1248
VWidth: 0
Flags: W
LayerCount: 2
Fore
SplineSet
255 1346 m 1
 64 1346 l 1
 567 424 l 1
 390 0 l 1
 577 0 l 1
 1217 1346 l 1
 1029 1346 l 1
 670 580 l 1
 255 1346 l 1
624 1346 m 0
EndSplineSet
EndChar

StartChar: afii10038
Encoding: 1060 1060 179
Width: 1543
VWidth: 0
Flags: W
LayerCount: 2
Fore
SplineSet
789 0 m 1
 715 0 l 1
 716 97 l 1
 295 145 107 342 107 670 c 0
 107 1004 298 1204 716 1252 c 1
 715 1378 l 1
 789 1378 l 1
 789 1255 l 1
 1203 1219 1421 1032 1421 670 c 0
 1421 313 1200 131 789 95 c 1
 789 0 l 1
716 194 m 1
 716 1157 l 1
 370 1112 217 949 217 672 c 0
 217 398 372 239 716 194 c 1
789 1159 m 1
 789 192 l 1
 1157 233 1310 398 1310 672 c 0
 1310 951 1154 1118 789 1159 c 1
EndSplineSet
EndChar

StartChar: afii10040
Encoding: 1062 1062 180
Width: 1408
VWidth: 0
Flags: W
LayerCount: 2
Fore
SplineSet
1228 -257 m 1
 1228 160 l 1
 1082 160 l 1
 1082 1353 l 1
 972 1353 l 1
 972 101 l 1
 308 101 l 1
 308 1353 l 1
 198 1353 l 1
 198 0 l 1
 1121 0 l 1
 1120 -257 l 1
 1228 -257 l 1
EndSplineSet
EndChar

StartChar: afii10041
Encoding: 1063 1063 181
Width: 793
VWidth: 0
Flags: W
LayerCount: 2
Fore
SplineSet
896 -11 m 1
 768 -11 l 1
 768 411 l 1
 807 424 328 431 349 431 c 1
 141 431 77 613 77 791 c 2
 77 1359 l 1
 216 1359 l 1
 216 831 l 2
 216 586 290 547 427 547 c 1
 407 547 794 532 768 523 c 1
 768 1359 l 1
 896 1359 l 1
 896 -11 l 1
EndSplineSet
EndChar

StartChar: afii10042
Encoding: 1064 1064 182
Width: 1456
VWidth: 0
Flags: W
LayerCount: 2
Fore
SplineSet
663 106 m 1
 663 1353 l 1
 752 1353 l 1
 752 106 l 1
 1196 106 l 1
 1196 1353 l 1
 1285 1353 l 1
 1285 0 l 1
 156 0 l 1
 156 1353 l 1
 245 1353 l 1
 245 106 l 1
 663 106 l 1
EndSplineSet
EndChar

StartChar: afii10043
Encoding: 1065 1065 183
Width: 1532
VWidth: 0
Flags: W
LayerCount: 2
Fore
SplineSet
705 106 m 1
 705 1353 l 1
 794 1353 l 1
 794 106 l 1
 1237 106 l 1
 1237 1353 l 1
 1327 1353 l 1
 1327 160 l 1
 1407 160 l 1
 1407 -257 l 1
 1301 -257 l 1
 1302 0 l 1
 198 0 l 1
 198 1353 l 1
 287 1353 l 1
 287 106 l 1
 705 106 l 1
EndSplineSet
EndChar

StartChar: afii10044
Encoding: 1066 1066 184
Width: 1420
VWidth: 0
Flags: W
LayerCount: 2
Fore
SplineSet
664 1359 m 1
 664 716 l 1
 829 716 l 2
 1167 716 1311 593 1311 349 c 0
 1311 105 1147 -11 828 -11 c 2
 531 -11 l 1
 531 1258 l 1
 200 1258 l 1
 200 1359 l 1
 664 1359 l 1
664 615 m 1
 664 91 l 1
 847 91 l 2
 1125 91 1168 185 1168 359 c 0
 1168 517 1115 615 848 615 c 2
 664 615 l 1
EndSplineSet
EndChar

StartChar: afii10045
Encoding: 1067 1067 185
Width: 1032
VWidth: 0
Flags: W
LayerCount: 2
Fore
SplineSet
324 1346 m 1
 324 773 l 1
 454 773 l 2
 776 773 949 634 949 387 c 0
 949 149 781 0 441 0 c 2
 149 0 l 1
 149 1346 l 1
 324 1346 l 1
324 633 m 1
 324 141 l 1
 459 141 l 2
 689 141 774 223 774 383 c 0
 774 537 692 633 453 633 c 2
 324 633 l 1
EndSplineSet
EndChar

StartChar: afii10048
Encoding: 1070 1070 186
Width: 2196
VWidth: 0
Flags: W
LayerCount: 2
Fore
SplineSet
1177 -24 m 0
 819 -24 605 278 584 648 c 1
 237 648 l 1
 237 -7 l 1
 123 -7 l 1
 123 1379 l 1
 237 1379 l 1
 237 743 l 1
 587 743 l 1
 607 1140 811 1404 1164 1404 c 0
 1540 1404 1773 1099 1773 678 c 0
 1773 295 1555 -24 1177 -24 c 0
1181 71 m 0
 1489 71 1652 360 1652 684 c 0
 1652 987 1489 1308 1167 1308 c 0
 858 1308 700 1000 700 681 c 0
 700 235 867 71 1181 71 c 0
EndSplineSet
EndChar

StartChar: afii10052
Encoding: 1027 1027 188
Width: 1047
VWidth: 0
Flags: W
LayerCount: 2
Fore
SplineSet
995 1205 m 1
 1008 1346 l 1
 160 1346 l 1
 160 0 l 1
 334 0 l 1
 334 1205 l 1
 995 1205 l 1
EndSplineSet
EndChar

StartChar: afii10054
Encoding: 1029 1029 189
Width: 1323
VWidth: 0
Flags: W
LayerCount: 2
Fore
SplineSet
684 -22 m 0
 401 -22 216 56 157 97 c 1
 193 171 l 1
 345 103 488 57 694 57 c 0
 926 57 1058 166 1058 390 c 0
 1058 519 1017 608 787 660 c 1
 487 725 l 1
 282 768 150 858 150 1031 c 0
 150 1305 350 1371 671 1371 c 0
 843 1371 1000 1344 1072 1293 c 1
 1052 1225 l 1
 955 1275 839 1294 671 1294 c 0
 391 1294 240 1230 240 1046 c 0
 240 913 331 845 515 805 c 1
 807 750 l 1
 988 720 1145 626 1145 401 c 0
 1145 104 954 -22 684 -22 c 0
EndSplineSet
EndChar

StartChar: afii10055
Encoding: 1030 1030 190
Width: 432
VWidth: 0
Flags: W
LayerCount: 2
Fore
SplineSet
136 0 m 1
 136 1362 l 1
 297 1362 l 1
 297 0 l 1
 136 0 l 1
216 1346 m 0
EndSplineSet
EndChar

StartChar: afii10057
Encoding: 1032 1032 191
Width: 689
VWidth: 0
Flags: W
LayerCount: 2
Fore
SplineSet
195 -136 m 1
 171 -25 l 1
 141 -21 228 -19 211 -19 c 1
 402 -19 398 98 398 226 c 2
 398 1349 l 1
 487 1349 l 1
 487 268 l 2
 487 0 504 -130 181 -130 c 1
 204 -130 172 -131 195 -136 c 1
EndSplineSet
EndChar

StartChar: afii10058
Encoding: 1033 1033 192
Width: 1831
VWidth: 0
Flags: W
LayerCount: 2
Fore
SplineSet
101 -29 m 1
 101 83 l 1
 116 81 l 1
 301 79 303 205 303 339 c 2
 305 1359 l 1
 981 1359 l 1
 981 781 l 1
 1283 781 l 2
 1506 781 1627 662 1627 378 c 0
 1627 130 1506 -3 1279 -3 c 2
 832 -3 l 1
 853 1263 l 1
 431 1263 l 1
 423 389 l 1
 423 115 410 -29 102 -29 c 2
 101 -29 l 1
968 679 m 1
 968 92 l 1
 1268 92 l 2
 1395 92 1489 200 1489 377 c 0
 1489 555 1403 679 1268 679 c 2
 968 679 l 1
EndSplineSet
EndChar

StartChar: afii10059
Encoding: 1034 1034 193
Width: 1853
VWidth: 0
Flags: W
LayerCount: 2
Fore
SplineSet
1335 653 m 2
 1527 653 1627 573 1627 392 c 0
 1627 212 1529 129 1343 129 c 2
 1120 129 l 1
 1120 653 l 1
 1335 653 l 2
334 630 m 1
 946 630 l 1
 946 0 l 1
 1334 0 l 2
 1664 0 1792 155 1792 393 c 0
 1792 628 1664 779 1340 779 c 2
 1120 779 l 1
 1120 1346 l 1
 946 1346 l 1
 946 768 l 1
 334 768 l 1
 334 1346 l 1
 160 1346 l 1
 160 0 l 1
 334 0 l 1
 334 630 l 1
EndSplineSet
EndChar

StartChar: afii10066
Encoding: 1073 1073 198
Width: 1006
VWidth: 0
Flags: W
LayerCount: 2
Fore
SplineSet
528 -19 m 0
 761 -19 895 181 895 392 c 0
 895 536 793 765 567 765 c 0
 391 765 351 705 215 640 c 1
 290 1007 582 1044 832 1059 c 1
 835 1131 l 1
 267 1098 108 856 108 487 c 1
 108 496 58 -19 528 -19 c 0
524 67 m 0
 385 67 183 180 232 550 c 1
 369 685 518 697 567 697 c 0
 716 697 817 559 817 406 c 0
 817 182 751 67 524 67 c 0
EndSplineSet
EndChar

StartChar: afii10067
Encoding: 1074 1074 199
Width: 1090
VWidth: 0
Flags: W
LayerCount: 2
Fore
SplineSet
194 0 m 1
 194 988 l 1
 622 988 l 2
 878 988 938 857 938 757 c 0
 938 642 890 575 731 534 c 1
 925 498 974 364 974 281 c 0
 974 163 914 0 609 0 c 2
 194 0 l 1
315 469 m 1
 315 79 l 1
 594 79 l 2
 801 79 832 151 832 281 c 1
 833 367 823 469 620 469 c 2
 315 469 l 1
315 907 m 1
 315 564 l 1
 616 564 l 2
 768 564 797 651 797 733 c 0
 797 834 746 907 595 907 c 2
 315 907 l 1
EndSplineSet
EndChar

StartChar: afii10068
Encoding: 1075 1075 200
Width: 994
VWidth: 0
Flags: W
LayerCount: 2
Fore
SplineSet
895 917 m 1
 914 988 l 1
 194 988 l 1
 194 0 l 1
 315 0 l 1
 315 917 l 1
 895 917 l 1
497 986 m 0
EndSplineSet
EndChar

StartChar: afii10069
Encoding: 1076 1076 201
Width: 1160
VWidth: 0
Flags: W
LayerCount: 2
Fore
SplineSet
57 -257 m 1
 57 71 l 1
 153 71 l 1
 230 93 249 164 284 260 c 1
 415 988 l 1
 981 988 l 1
 981 71 l 1
 1038 71 l 1
 1038 -257 l 1
 941 -257 l 1
 952 0 l 1
 138 0 l 1
 144 -257 l 1
 57 -257 l 1
858 923 m 1
 500 923 l 1
 501 948 406 348 408 367 c 1
 373 204 317 75 278 69 c 1
 858 69 l 1
 858 923 l 1
EndSplineSet
EndChar

StartChar: afii10069.copy_1
Encoding: 65538 -1 202
Width: 1108
VWidth: 0
Flags: W
LayerCount: 2
Fore
SplineSet
39 -275 m 1
 39 120 l 1
 127 120 l 1
 196 175 232 306 253 451 c 2
 331 999 l 1
 970 999 l 1
 970 120 l 1
 1049 120 l 1
 1049 -275 l 1
 901 -275 l 1
 901 0 l 1
 183 0 l 1
 183 -275 l 1
 39 -275 l 1
795 878 m 1
 483 878 l 1
 428 478 l 2
 402 292 351 153 316 120 c 1
 795 120 l 1
 795 878 l 1
EndSplineSet
EndChar

StartChar: afii10070
Encoding: 1077 1077 203
Width: 1030
VWidth: 0
Flags: W
LayerCount: 2
Fore
SplineSet
506 986 m 0
EndSplineSet
Refer: 300 101 N 1 0 0 1 0 0 2
EndChar

StartChar: afii10070.copy_1
Encoding: 65539 -1 204
Width: 1030
VWidth: 0
Flags: W
LayerCount: 2
Fore
SplineSet
510 999 m 0
EndSplineSet
Refer: 300 101 N 1 0 0 1 0 0 2
EndChar

StartChar: afii10072
Encoding: 1078 1078 206
Width: 1438
VWidth: 0
Flags: W
LayerCount: 2
Fore
SplineSet
646 515 m 1
 646 988 l 1
 767 988 l 1
 767 515 l 1
 1258 988 l 1
 1355 988 l 1
 852 510 l 1
 1358 0 l 1
 1248 0 l 1
 767 490 l 1
 767 0 l 1
 646 0 l 1
 646 490 l 1
 168 0 l 1
 57 0 l 1
 564 510 l 1
 60 988 l 1
 159 988 l 1
 646 515 l 1
EndSplineSet
EndChar

StartChar: afii10073
Encoding: 1079 1079 207
Width: 858
VWidth: 0
Flags: W
LayerCount: 2
Fore
SplineSet
736 259 m 1
 737 374 681 479 529 523 c 1
 684 569 699 669 699 751 c 0
 699 862 667 1028 396 1028 c 0
 298 1028 193 1000 108 923 c 1
 130 870 141 839 141 839 c 1
 207 887 297 927 369 927 c 0
 513 927 589 853 589 739 c 0
 589 649 512 563 348 563 c 2
 279 563 l 1
 279 482 l 1
 348 482 l 2
 549 482 604 374 604 269 c 0
 604 159 498 74 378 74 c 0
 299 74 195 115 144 160 c 1
 121 64 l 1
 208 -6 308 -18 384 -18 c 0
 605 -18 736 141 736 259 c 1
430 986 m 0
430 0 m 0
EndSplineSet
EndChar

StartChar: afii10074
Encoding: 1080 1080 208
Width: 1088
VWidth: 0
Flags: W
LayerCount: 2
Fore
SplineSet
254 147 m 1
 254 988 l 1
 161 988 l 1
 161 0 l 1
 253 0 l 1
 818 759 l 1
 818 0 l 1
 913 0 l 1
 913 988 l 1
 818 988 l 1
 818 904 l 1
 254 147 l 1
544 986 m 0
EndSplineSet
EndChar

StartChar: afii10076
Encoding: 1082 1082 210
Width: 1122
VWidth: 0
Flags: W
LayerCount: 2
Fore
SplineSet
194 988 m 1
 194 0 l 1
 315 0 l 1
 315 482 l 1
 820 0 l 1
 957 0 l 1
 444 493 l 1
 419 471 904 987 904 987 c 1
 751 985 l 1
 751 985 278 477 315 511 c 1
 315 988 l 1
 194 988 l 1
561 986 m 0
EndSplineSet
EndChar

StartChar: afii10077
Encoding: 1083 1083 211
Width: 1168
VWidth: 0
Flags: W
LayerCount: 2
Fore
SplineSet
839 -1 m 1
 839 909 l 1
 567 909 l 1
 463 516 l 1
 391 215 383 -13 94 -7 c 1
 100 -7 77 77 77 77 c 1
 230 69 284 166 356 541 c 1
 484 988 l 1
 960 988 l 1
 960 -1 l 1
 839 -1 l 1
EndSplineSet
EndChar

StartChar: afii10077.copy_1
Encoding: 65540 -1 212
Width: 1128
VWidth: 0
Flags: W
LayerCount: 2
Fore
SplineSet
804 0 m 1
 804 870 l 1
 493 870 l 1
 434 454 l 2
 393 167 333 -14 62 -14 c 1
 48 118 l 1
 192 118 227 187 268 480 c 2
 341 999 l 1
 979 999 l 1
 979 0 l 1
 804 0 l 1
EndSplineSet
EndChar

StartChar: afii10078
Encoding: 1084 1084 213
Width: 1195
VWidth: 0
Flags: W
LayerCount: 2
Fore
SplineSet
885 988 m 1
 985 988 l 1
 985 0 l 1
 890 0 l 1
 890 766 l 1
 645 137 l 1
 555 137 l 1
 287 766 l 1
 287 0 l 1
 194 0 l 1
 194 988 l 1
 295 988 l 1
 589 243 l 1
 885 988 l 1
EndSplineSet
EndChar

StartChar: afii10078.copy_1
Encoding: 65541 -1 214
Width: 1171
VWidth: 0
Flags: W
LayerCount: 2
Fore
SplineSet
870 999 m 1
 1022 999 l 1
 1022 0 l 1
 869 0 l 1
 869 711 l 1
 640 205 l 1
 543 205 l 1
 302 711 l 1
 302 0 l 1
 149 0 l 1
 149 999 l 1
 302 999 l 1
 585 385 l 1
 870 999 l 1
EndSplineSet
EndChar

StartChar: afii10079
Encoding: 1085 1085 215
Width: 1215
VWidth: 0
Flags: W
LayerCount: 2
Fore
SplineSet
885 563 m 1
 885 988 l 1
 1006 988 l 1
 1006 0 l 1
 885 0 l 1
 885 485 l 1
 315 485 l 1
 315 0 l 1
 194 0 l 1
 194 988 l 1
 315 988 l 1
 315 563 l 1
 885 563 l 1
EndSplineSet
EndChar

StartChar: afii10079.copy_1
Encoding: 65542 -1 216
Width: 1104
VWidth: 0
Flags: W
LayerCount: 2
Fore
SplineSet
800 594 m 1
 800 999 l 1
 975 999 l 1
 975 0 l 1
 800 0 l 1
 800 471 l 1
 305 471 l 1
 305 0 l 1
 130 0 l 1
 130 999 l 1
 305 999 l 1
 305 594 l 1
 800 594 l 1
EndSplineSet
EndChar

StartChar: afii10081
Encoding: 1087 1087 219
Width: 1074
VWidth: 0
Flags: W
LayerCount: 2
Fore
SplineSet
823 0 m 1
 823 902 l 1
 238 902 l 1
 238 0 l 1
 155 0 l 1
 155 988 l 1
 905 988 l 1
 905 0 l 1
 823 0 l 1
EndSplineSet
EndChar

StartChar: afii10082
Encoding: 1088 1088 220
Width: 1234
VWidth: 0
Flags: W
LayerCount: 2
Fore
SplineSet
135 985 m 1
 247 985 l 1
 261 788 l 1
 313 938 445 1005 588 1005 c 0
 891 1005 1061 796 1061 481 c 0
 1061 189 866 -23 606 -23 c 0
 461 -23 311 53 246 160 c 1
 251 81 251 3 251 -81 c 2
 251 -441 l 1
 135 -449 l 1
 135 985 l 1
593 60 m 0
 833 60 945 241 945 490 c 0
 945 726 842 920 598 920 c 0
 339 920 251 740 252 507 c 1
 252 244 325 60 593 60 c 0
EndSplineSet
EndChar

StartChar: afii10084
Encoding: 1090 1090 222
Width: 958
VWidth: 0
Flags: W
LayerCount: 2
Fore
SplineSet
818 988 m 1
 818 892 l 1
 534 892 l 1
 534 0 l 1
 407 0 l 1
 407 892 l 1
 127 892 l 1
 127 988 l 1
 818 988 l 1
EndSplineSet
EndChar

StartChar: afii10085
Encoding: 1091 1091 223
Width: 1045
VWidth: 0
Flags: W
LayerCount: 2
Fore
SplineSet
114 -244 m 1
 124 -140 l 1
 702 -185 580 194 576 154 c 1
 100 986 l 1
 234 986 l 1
 612 229 l 1
 870 986 l 1
 993 986 l 1
 649 88 l 1
 616 -12 717 -274 114 -244 c 1
523 986 m 0
EndSplineSet
EndChar

StartChar: afii10086
Encoding: 1092 1092 224
Width: 1377
VWidth: 0
Flags: W
LayerCount: 2
Fore
SplineSet
699 -356 m 1
 603 -356 l 1
 603 75 l 1
 546 49 466 40 400 40 c 0
 211 40 59 233 59 506 c 0
 59 779 194 952 391 952 c 0
 453 952 546 933 603 907 c 1
 603 1219 l 1
 699 1219 l 1
 699 907 l 1
 759 934 843 952 909 952 c 0
 1105 952 1243 780 1243 507 c 0
 1243 236 1091 40 900 40 c 0
 834 40 754 49 699 75 c 1
 699 -356 l 1
406 125 m 0
 467 125 543 133 603 164 c 1
 603 827 l 1
 535 863 453 868 390 868 c 0
 241 868 169 705 169 507 c 0
 169 311 257 125 406 125 c 0
896 125 m 0
 1042 125 1134 310 1134 506 c 0
 1134 705 1058 867 911 867 c 0
 845 867 765 857 699 821 c 1
 699 167 l 1
 762 131 833 125 896 125 c 0
EndSplineSet
EndChar

StartChar: afii10088
Encoding: 1094 1094 226
Width: 1120
VWidth: 0
Flags: W
LayerCount: 2
Fore
SplineSet
1041 -257 m 1
 1041 126 l 1
 952 126 l 1
 952 988 l 1
 832 988 l 1
 832 72 l 1
 313 72 l 1
 313 988 l 1
 194 988 l 1
 194 0 l 1
 905 0 l 1
 891 -257 l 1
 1041 -257 l 1
EndSplineSet
EndChar

StartChar: afii10089
Encoding: 1095 1095 227
Width: 1002
VWidth: 0
Flags: W
LayerCount: 2
Fore
SplineSet
792 0 m 1
 672 0 l 1
 672 328 l 1
 711 361 594 370 484 370 c 1
 287 368 159 493 159 745 c 2
 159 988 l 1
 280 988 l 1
 280 742 l 2
 280 470 368 456 502 456 c 0
 572 456 676 414 672 379 c 1
 672 988 l 1
 792 988 l 1
 792 0 l 1
EndSplineSet
EndChar

StartChar: afii10090
Encoding: 1096 1096 228
Width: 1394
VWidth: 0
Flags: W
LayerCount: 2
Fore
SplineSet
677 71 m 1
 677 988 l 1
 795 988 l 1
 795 71 l 1
 1086 71 l 1
 1086 988 l 1
 1203 988 l 1
 1203 0 l 1
 270 0 l 1
 270 988 l 1
 385 988 l 1
 385 71 l 1
 677 71 l 1
EndSplineSet
EndChar

StartChar: afii10091
Encoding: 1097 1097 229
Width: 1352
VWidth: 0
Flags: W
LayerCount: 2
Fore
SplineSet
1124 -262 m 1
 1272 -262 l 1
 1272 125 l 1
 1182 125 l 1
 1182 988 l 1
 1050 988 l 1
 1050 72 l 1
 782 72 l 1
 782 988 l 1
 650 988 l 1
 650 72 l 1
 326 72 l 1
 326 988 l 1
 196 988 l 1
 196 0 l 1
 1135 0 l 1
 1124 -262 l 1
EndSplineSet
EndChar

StartChar: afii10092
Encoding: 1098 1098 230
Width: 961
VWidth: 0
Flags: W
LayerCount: 2
Fore
SplineSet
213 0 m 1
 522 0 l 2
 792 0 856 181 856 324 c 0
 856 458 803 627 521 627 c 2
 334 627 l 1
 334 988 l 1
 77 988 l 1
 77 914 l 1
 213 914 l 1
 213 0 l 1
333 79 m 1
 333 540 l 1
 530 540 l 2
 669 540 721 432 721 326 c 0
 721 226 681 79 536 79 c 2
 333 79 l 1
EndSplineSet
EndChar

StartChar: afii10093
Encoding: 1099 1099 231
Width: 1397
VWidth: 0
Flags: W
LayerCount: 2
Fore
SplineSet
1074 0 m 1
 1074 998 l 1
 1248 998 l 1
 1248 0 l 1
 1074 0 l 1
323 999 m 1
 323 635 l 1
 525 635 l 2
 769 635 870 490 870 326 c 0
 870 162 775 0 531 0 c 2
 149 0 l 1
 149 999 l 1
 323 999 l 1
323 511 m 1
 323 122 l 1
 533 122 l 2
 653 122 696 239 696 329 c 0
 696 419 647 511 527 511 c 2
 323 511 l 1
EndSplineSet
EndChar

StartChar: afii10094
Encoding: 1100 1100 232
Width: 953
VWidth: 0
Flags: W
LayerCount: 2
Fore
SplineSet
314 987 m 1
 314 624 l 1
 512 624 l 2
 795 624 848 455 848 322 c 0
 848 179 785 0 514 0 c 2
 194 0 l 1
 194 987 l 1
 314 987 l 1
313 538 m 1
 313 79 l 1
 527 79 l 2
 673 79 713 225 713 324 c 0
 713 428 661 538 520 538 c 2
 313 538 l 1
EndSplineSet
EndChar

StartChar: afii10094.copy_1
Encoding: 65544 -1 233
Width: 940
VWidth: 0
Flags: W
LayerCount: 2
Fore
SplineSet
302 999 m 1
 302 635 l 1
 504 635 l 2
 748 635 849 490 849 326 c 0
 849 162 754 0 510 0 c 2
 128 0 l 1
 128 999 l 1
 302 999 l 1
302 511 m 1
 302 122 l 1
 512 122 l 2
 632 122 675 239 675 329 c 0
 675 419 626 511 506 511 c 2
 302 511 l 1
EndSplineSet
EndChar

StartChar: afii10095
Encoding: 1101 1101 234
Width: 1117
VWidth: 0
Flags: W
LayerCount: 2
Fore
SplineSet
466 -26 m 0
 337 -26 216 9 167 62 c 1
 196 135 l 1
 298 77 384 60 460 60 c 0
 688 60 836 227 851 443 c 1
 439 443 l 1
 439 537 l 1
 851 537 l 1
 835 759 716 932 455 932 c 0
 347 932 268 897 193 852 c 1
 159 923 l 1
 227 985 359 1016 453 1016 c 0
 843 1016 948 721 948 478 c 0
 948 259 815 -26 466 -26 c 0
EndSplineSet
EndChar

StartChar: afii10096
Encoding: 1102 1102 235
Width: 1421
VWidth: 0
Flags: W
LayerCount: 2
Fore
SplineSet
850 -26 m 0
 560 -26 445 178 440 451 c 1
 243 451 l 1
 243 0 l 1
 161 0 l 1
 161 988 l 1
 243 988 l 1
 243 530 l 1
 440 530 l 1
 446 799 563 1016 855 1016 c 0
 1171 1016 1250 779 1250 493 c 0
 1250 220 1159 -26 850 -26 c 0
855 60 m 0
 1092 60 1154 273 1154 491 c 0
 1154 715 1101 930 850 930 c 0
 609 930 539 703 539 486 c 0
 539 274 612 60 855 60 c 0
EndSplineSet
EndChar

StartChar: afii10097
Encoding: 1103 1103 236
Width: 1102
VWidth: 0
Flags: W
LayerCount: 2
Fore
SplineSet
140 0 m 1
 275 0 l 1
 456 404 l 1
 773 404 l 1
 773 0 l 1
 891 0 l 1
 891 988 l 1
 466 988 l 2
 192 988 123 817 123 685 c 0
 123 582 177 453 338 410 c 1
 140 0 l 1
432 487 m 2
 290 487 245 559 245 685 c 0
 245 784 289 908 432 908 c 2
 773 908 l 1
 773 487 l 1
 432 487 l 2
EndSplineSet
EndChar

StartChar: afii10099
Encoding: 1106 1106 237
Width: 1247
VWidth: 0
Flags: W
LayerCount: 2
Fore
SplineSet
742 -262 m 1
 732 -142 l 1
 765 -142 l 2
 930 -142 951 -109 951 89 c 2
 951 332 l 2
 951 560 920 677 739 677 c 0
 574 677 441 547 415 448 c 1
 415 0 l 1
 275 0 l 1
 275 1002 l 1
 188 1002 l 1
 188 1096 l 1
 275 1096 l 1
 275 1369 l 1
 415 1369 l 1
 415 1096 l 1
 805 1096 l 1
 805 1002 l 1
 415 1002 l 1
 415 627 l 1
 500 737 609 804 753 804 c 0
 987 804 1093 661 1093 399 c 2
 1093 137 l 2
 1093 -143 1074 -262 804 -262 c 2
 742 -262 l 1
EndSplineSet
EndChar

StartChar: afii10106
Encoding: 1113 1113 240
Width: 1648
VWidth: 0
Flags: W
LayerCount: 2
Fore
SplineSet
107 -23 m 1
 98 116 l 1
 141 116 l 2
 267 116 269 168 269 372 c 2
 269 999 l 1
 1004 999 l 1
 1004 635 l 1
 1196 635 l 2
 1440 635 1541 490 1541 326 c 0
 1541 162 1446 0 1202 0 c 2
 851 0 l 1
 851 870 l 1
 422 870 l 1
 422 381 l 2
 422 83 419 -23 141 -23 c 2
 107 -23 l 1
1004 511 m 1
 1004 120 l 1
 1224 120 l 2
 1344 120 1393 239 1393 329 c 0
 1393 419 1338 511 1218 511 c 2
 1004 511 l 1
EndSplineSet
EndChar

StartChar: afii10107
Encoding: 1114 1114 241
Width: 1537
VWidth: 0
Flags: W
LayerCount: 2
Fore
SplineSet
742 562 m 1
 742 988 l 1
 826 988 l 1
 826 630 l 1
 1027 630 l 2
 1299 630 1371 454 1371 325 c 0
 1371 178 1311 0 1038 0 c 2
 742 0 l 1
 742 493 l 1
 243 493 l 1
 243 0 l 1
 161 0 l 1
 161 988 l 1
 243 988 l 1
 243 562 l 1
 742 562 l 1
826 543 m 1
 826 73 l 1
 1084 73 l 2
 1223 73 1271 228 1271 326 c 0
 1271 428 1214 543 1074 543 c 2
 826 543 l 1
EndSplineSet
EndChar

StartChar: afii10108
Encoding: 1115 1115 242
Width: 1244
VWidth: 0
Flags: W
LayerCount: 2
Fore
SplineSet
441 0 m 1
 441 534 l 1
 474 479 517 424 596 424 c 0
 743 424 769 377 769 163 c 2
 769 0 l 1
 948 0 l 1
 948 175 l 2
 948 418 854 535 624 535 c 0
 499 535 442 543 441 596 c 1
 441 927 l 1
 761 927 l 1
 761 1020 l 1
 404 1020 l 1
 404 1324 l 1
 264 1324 l 1
 264 1020 l 1
 102 1020 l 1
 102 926 l 1
 264 926 l 1
 264 0 l 1
 441 0 l 1
EndSplineSet
EndChar

StartChar: afii10108.copy_1
Encoding: 65545 -1 243
Width: 1128
VWidth: 0
Flags: W
LayerCount: 2
Fore
SplineSet
366 0 m 1
 366 502 l 1
 395 504 470 519 576 519 c 0
 727 519 754 451 754 233 c 2
 754 0 l 1
 928 0 l 1
 928 269 l 2
 928 520 830 650 598 650 c 0
 473 650 398 633 366 630 c 1
 366 954 l 1
 704 954 l 1
 704 1060 l 1
 345 1060 l 1
 345 1347 l 1
 192 1347 l 1
 192 1060 l 1
 64 1060 l 1
 64 954 l 1
 192 954 l 1
 192 0 l 1
 366 0 l 1
EndSplineSet
EndChar

StartChar: afii10145
Encoding: 1039 1039 246
Width: 1327
VWidth: 0
Flags: W
LayerCount: 2
Fore
SplineSet
760 0 m 1
 1167 0 l 1
 1167 1346 l 1
 993 1346 l 1
 993 138 l 1
 334 138 l 1
 334 1346 l 1
 160 1346 l 1
 160 0 l 1
 601 0 l 1
 601 -275 l 1
 760 -275 l 1
 760 0 l 1
EndSplineSet
EndChar

StartChar: afii10193
Encoding: 1119 1119 247
Width: 1031
VWidth: 0
Flags: W
LayerCount: 2
Fore
SplineSet
243 988 m 1
 243 72 l 1
 778 72 l 1
 778 988 l 1
 861 988 l 1
 861 0 l 1
 575 0 l 1
 574 -219 l 1
 512 -219 l 1
 511 0 l 1
 161 0 l 1
 161 988 l 1
 243 988 l 1
EndSplineSet
EndChar

StartChar: afii57929
Encoding: 700 700 248
Width: 551
VWidth: 0
Flags: W
LayerCount: 2
Fore
SplineSet
144 1086 m 1
 297 1481 l 1
 396 1481 l 1
 220 1086 l 1
 144 1086 l 1
EndSplineSet
EndChar

StartChar: afii61352
Encoding: 8470 8470 249
Width: 2524
VWidth: 0
Flags: W
LayerCount: 2
Fore
SplineSet
-430 -23 m 0
 -162 -23 24 203 24 490 c 0
 24 790 -143 1005 -437 1005 c 0
 -722 1005 -891 785 -891 490 c 0
 -891 200 -708 -23 -430 -23 c 0
-433 914 m 0
 -186 914 -92 712 -92 487 c 0
 -92 268 -184 69 -434 69 c 0
 -683 69 -774 268 -774 488 c 0
 -774 712 -682 914 -433 914 c 0
3099 110 m 1
 3100 60 3105 322 3105 393 c 2
 3105 1349 l 1
 3156 1349 l 1
 3156 0 l 1
 3075 0 l 1
 2621 625 2598 617 2149 1247 c 1
 2149 1247 2138 1200 2138 1034 c 2
 2138 0 l 1
 2085 0 l 1
 2085 1349 l 1
 2170 1349 l 1
 2626 725 2647 739 3099 110 c 1
EndSplineSet
EndChar

StartChar: alpha
Encoding: 945 945 251
Width: 484
VWidth: 0
Flags: W
LayerCount: 2
Fore
SplineSet
229 485 m 0
 152 485 113 542 113 600 c 0
 113 658 152 715 229 715 c 0
 307 715 346 658 346 600 c 0
 346 542 307 485 229 485 c 0
243 986 m 0
EndSplineSet
EndChar

StartChar: alphatonos
Encoding: 940 940 252
Width: 484
VWidth: 0
Flags: W
LayerCount: 2
Fore
SplineSet
229 485 m 0
 152 485 113 542 113 600 c 0
 113 658 152 715 229 715 c 0
 307 715 346 658 346 600 c 0
 346 542 307 485 229 485 c 0
EndSplineSet
EndChar

StartChar: ampersand
Encoding: 38 38 254
Width: 1256
VWidth: 0
Flags: W
LayerCount: 2
Fore
SplineSet
536 -34 m 0
 745 -34 890 32 1001 127 c 1
 1123 -19 l 1
 1204 4 1137 -4 1217 24 c 1
 1072 220 l 1
 1130 289 1174 363 1207 443 c 1
 1142 511 l 1
 1109 430 1069 356 1012 300 c 1
 592 737 l 1
 790 823 924 928 924 1081 c 0
 924 1257 773 1352 574 1352 c 0
 333 1352 214 1228 214 1065 c 0
 214 944 271 876 385 757 c 1
 181 660 68 537 68 339 c 0
 68 134 172 -34 536 -34 c 0
547 82 m 0
 305 82 181 191 181 349 c 0
 181 495 298 602 464 681 c 1
 667 475 716 421 917 216 c 1
 817 137 703 82 547 82 c 0
516 805 m 1
 419 892 352 961 352 1059 c 0
 352 1175 442 1247 574 1247 c 0
 684 1247 789 1186 789 1065 c 0
 789 938 668 875 516 805 c 1
EndSplineSet
EndChar

StartChar: approxequal
Encoding: 8776 8776 256
Width: 1197
VWidth: 0
Flags: W
LayerCount: 2
Fore
SplineSet
203 354 m 1
 229 470 281 539 381 539 c 0
 430 539 490 505 555 460 c 1
 667 386 749 354 815 354 c 0
 985 354 1025 458 1043 642 c 1
 953 612 l 1
 946 499 899 423 810 423 c 0
 749 423 681 477 611 520 c 1
 539 566 464 612 376 612 c 0
 229 612 137 511 118 322 c 1
 203 354 l 1
203 721 m 1
 225 836 276 902 377 902 c 0
 426 902 487 870 552 825 c 0
 661 749 741 717 813 717 c 0
 977 717 1021 820 1040 1005 c 1
 949 971 l 1
 942 856 896 783 807 783 c 0
 754 783 703 813 613 872 c 1
 520 935 457 971 377 971 c 0
 231 971 132 869 114 684 c 1
 203 721 l 1
EndSplineSet
EndChar

StartChar: asciicircum
Encoding: 94 94 259
Width: 1242
VWidth: 0
Flags: W
LayerCount: 2
Fore
SplineSet
175 566 m 1
 569 1402 l 1
 638 1402 l 1
 1053 566 l 1
 983 566 l 1
 603 1307 l 1
 249 566 l 1
 175 566 l 1
EndSplineSet
EndChar

StartChar: asciitilde
Encoding: 126 126 260
Width: 1127
VWidth: 0
Flags: W
LayerCount: 2
Fore
SplineSet
110 474 m 1
 91 541 l 1
 131 645 214 722 326 722 c 0
 399 722 441 704 542 659 c 1
 635 620 717 577 776 577 c 0
 857 577 937 658 957 735 c 1
 988 676 l 1
 943 552 887 488 779 488 c 0
 724 488 655 513 582 546 c 0
 470 595 391 631 325 631 c 0
 240 631 157 561 110 474 c 1
EndSplineSet
EndChar

StartChar: asterisk
Encoding: 42 42 261
Width: 1123
VWidth: 0
Flags: W
LayerCount: 2
Fore
SplineSet
175 1141 m 1
 520 995 l 1
 485 1390 l 1
 615 1390 l 1
 579 995 l 1
 925 1141 l 1
 958 1024 l 1
 603 943 l 1
 640 891 715 784 846 617 c 1
 766 567 827 599 747 549 c 1
 544 907 l 1
 354 548 l 1
 257 617 l 1
 492 943 l 1
 144 1024 l 1
 175 1141 l 1
EndSplineSet
EndChar

StartChar: b
Encoding: 98 98 263
Width: 1137
VWidth: 0
Flags: W
LayerCount: 2
Fore
SplineSet
604 -18 m 0
 891 -18 1043 180 1043 486 c 0
 1043 800 904 1005 613 1005 c 0
 483 1005 338 933 275 797 c 1
 275 997.236 l 1
 275 1456 l 1
 158 1444 l 1
 158 0 l 1
 272 0 l 1
 287 171 l 1
 347 63 469 -18 604 -18 c 0
607 68 m 0
 396 68 272 243 272 506 c 1
 271 739 371 919 621 919 c 0
 856 919 929 724 929 488 c 0
 929 240 838 68 607 68 c 0
EndSplineSet
EndChar

StartChar: backslash
Encoding: 92 92 264
Width: 897
VWidth: 0
Flags: W
LayerCount: 2
Fore
SplineSet
667 -56 m 1
 127 1327 l 1
 205 1327 l 1
 746 -56 l 1
 667 -56 l 1
EndSplineSet
EndChar

StartChar: bar
Encoding: 124 124 265
Width: 209
VWidth: 0
Flags: W
LayerCount: 2
Fore
SplineSet
59 -381 m 1
 59 1457 l 1
 139 1457 l 1
 139 -381 l 1
 59 -381 l 1
EndSplineSet
EndChar

StartChar: beta
Encoding: 946 946 266
Width: 484
VWidth: 0
Flags: W
LayerCount: 2
Fore
SplineSet
229 485 m 0
 152 485 113 542 113 600 c 0
 113 658 152 715 229 715 c 0
 307 715 346 658 346 600 c 0
 346 542 307 485 229 485 c 0
EndSplineSet
EndChar

StartChar: braceright
Encoding: 125 125 267
Width: 752
VWidth: 0
Flags: W
LayerCount: 2
Fore
SplineSet
117 -263 m 1
 117 -185 l 1
 253 -183 306 -118 306 62 c 2
 306 304 l 2
 306 416 336 467 474 582 c 1
 344 618 305 746 306 846 c 1
 306 1087 l 2
 306 1260 256 1334 117 1336 c 1
 117 1411 l 1
 322 1411 385 1278 385 1076 c 2
 385 931 l 2
 385 760 397 619 584 616 c 1
 584 538 l 1
 403 538 385 391 385 224 c 2
 385 27 l 2
 385 -144 295 -262 117 -263 c 1
EndSplineSet
EndChar

StartChar: bracketleft
Encoding: 91 91 268
Width: 599
VWidth: 0
Flags: W
LayerCount: 2
Fore
SplineSet
200 1248 m 1
 200 -207 l 1
 506 -207 l 1
 506 -287 l 1
 107 -287 l 1
 107 1330 l 1
 506 1330 l 1
 506 1248 l 1
 200 1248 l 1
EndSplineSet
EndChar

StartChar: bracketright
Encoding: 93 93 269
Width: 601
VWidth: 0
Flags: W
LayerCount: 2
Fore
SplineSet
96 1248 m 1
 96 1330 l 1
 494 1330 l 1
 494 -287 l 1
 96 -287 l 1
 96 -207 l 1
 402 -207 l 1
 402 1248 l 1
 96 1248 l 1
EndSplineSet
EndChar

StartChar: breve
Encoding: 728 728 270
Width: 734
VWidth: 0
Flags: W
LayerCount: 2
Fore
SplineSet
563 1443 m 1
 505 1443 l 1
 505 1339 423 1287 363 1287 c 0
 303 1287 227 1339 227 1443 c 1
 167 1443 l 1
 167 1291 281 1235 363 1235 c 0
 446 1235 563 1292 563 1443 c 1
365 986 m 0
EndSplineSet
EndChar

StartChar: brokenbar
Encoding: 166 166 271
Width: 159
VWidth: 0
Flags: W
LayerCount: 2
Fore
SplineSet
35 -380 m 1
 35 250 l 1
 116 250 l 1
 116 -380 l 1
 35 -380 l 1
35 830 m 1
 35 1457 l 1
 116 1457 l 1
 116 830 l 1
 35 830 l 1
EndSplineSet
EndChar

StartChar: bullet
Encoding: 8226 8226 272
Width: 669
VWidth: 0
Flags: W
LayerCount: 2
Fore
SplineSet
322 414 m 0
 197 414 95 555 95 710 c 0
 95 869 211 1013 325 1013 c 0
 445 1013 553 870 553 714 c 0
 553 555 440 414 322 414 c 0
EndSplineSet
EndChar

StartChar: c
Encoding: 99 99 273
Width: 866
VWidth: 0
Flags: W
LayerCount: 2
Fore
SplineSet
553 -18 m 0
 272 -18 94 204 94 483 c 0
 94 784 283 1005 566 1005 c 0
 661 1005 750 975 806 942 c 1
 768 869 l 1
 673 921 598 919 583 919 c 0
 332 919 206 732 206 483 c 0
 206 265 316 68 569 68 c 0
 650 68 736 94 778 118 c 1
 806 46 l 1
 769 15 664 -18 553 -18 c 0
445 986 m 0
445 0 m 0
EndSplineSet
EndChar

StartChar: caron
Encoding: 711 711 275
Width: 765
VWidth: 0
Flags: W
LayerCount: 2
Fore
SplineSet
266 1179 m 1
 154 1542 l 1
 212 1542 l 1
 372 1186 l 1
 516 1542 l 1
 574 1542 l 1
 463 1179 l 1
 266 1179 l 1
364 986 m 0
EndSplineSet
EndChar

StartChar: cedilla
Encoding: 184 184 280
Width: 563
VWidth: 0
Flags: W
LayerCount: 2
Fore
SplineSet
148 -423 m 1
 239 -15 l 1
 265 -15 l 1
 236 -423 l 1
 148 -423 l 1
206 0 m 0
EndSplineSet
EndChar

StartChar: cent
Encoding: 162 162 281
Width: 1001
VWidth: 0
Flags: W
LayerCount: 2
Fore
SplineSet
575 122 m 1
 649 122 l 1
 649 226 l 1
 730 231 828 261 877 318 c 1
 854 385 l 1
 802 348 731 314 649 308 c 1
 649 1195 l 1
 708 1193 775 1179 855 1127 c 1
 882 1194 l 1
 840 1242 751 1276 649 1280 c 1
 649 1424 l 1
 575 1424 l 1
 575 1279 l 1
 281 1252 143 973 141 742 c 1
 141 512 277 250 575 226 c 1
 575 122 l 1
575 303 m 1
 368 328 233 517 233 734 c 0
 233 960 376 1163 575 1189 c 1
 575 303 l 1
EndSplineSet
EndChar

StartChar: chi
Encoding: 967 967 282
Width: 1246
VWidth: 0
Flags: W
LayerCount: 2
Fore
SplineSet
596 580 m 1
 903 985 l 1
 1026 985 l 1
 648 496 l 1
 1033 0 l 1
 925 0 l 1
 598 423 l 1
 275 0 l 1
 168 0 l 1
 544 500 l 1
 180 985 l 1
 286 985 l 1
 596 580 l 1
EndSplineSet
EndChar

StartChar: circumflex
Encoding: 710 710 283
Width: 764
VWidth: 0
Flags: W
LayerCount: 2
Fore
SplineSet
148 1199 m 1
 270 1542 l 1
 462 1542 l 1
 582 1199 l 1
 510 1199 l 1
 372 1483 l 1
 221 1199 l 1
 148 1199 l 1
365 986 m 0
EndSplineSet
EndChar

StartChar: colon
Encoding: 58 58 284
Width: 461
VWidth: 0
Flags: W
LayerCount: 2
Fore
SplineSet
157 -34 m 1
 157 142 l 1
 292 142 l 1
 292 -34 l 1
 157 -34 l 1
157 843 m 1
 157 1023 l 1
 292 1023 l 1
 292 843 l 1
 157 843 l 1
EndSplineSet
EndChar

StartChar: comma
Encoding: 44 44 285
Width: 431
VWidth: 0
Flags: W
LayerCount: 2
Fore
SplineSet
173 -266 m 1
 138 -266 l 1
 165 -41 142 -22 155 192 c 1
 292 192 l 1
 295 162 l 1
 239 -50 256 -42 173 -266 c 1
EndSplineSet
EndChar

StartChar: copyright
Encoding: 169 169 286
Width: 1775
VWidth: 0
Flags: W
LayerCount: 2
Fore
SplineSet
890 253 m 0
 1006 253 1138 290 1196 327 c 1
 1170 417 l 1
 1128 384 1012 346 914 346 c 0
 649 346 552 530 552 744 c 0
 552 929 639 1124 885 1124 c 0
 984 1124 1085 1100 1135 1059 c 1
 1192 1134 l 1
 1116 1187 1018 1220 909 1220 c 0
 627 1220 447 1019 447 737 c 0
 447 460 631 253 890 253 c 0
871 30 m 0
 430 30 234 345 234 729 c 0
 234 1102 430 1419 865 1419 c 0
 1334 1419 1529 1100 1529 722 c 0
 1529 342 1337 30 871 30 c 0
871 -40 m 0
 1248 -40 1618 179 1618 726 c 0
 1618 1269 1243 1486 865 1486 c 0
 521 1486 146 1272 146 726 c 0
 146 179 527 -40 871 -40 c 0
EndSplineSet
EndChar

StartChar: currency
Encoding: 164 164 287
Width: 1303
VWidth: 0
Flags: W
LayerCount: 2
Fore
SplineSet
1109 258 m 1
 1069 212 l 1
 897 374 l 1
 828 315 742 284 645 284 c 0
 548 284 461 315 392 375 c 1
 220 213 l 1
 176 260 l 1
 349 423 l 1
 294 492 263 572 263 660 c 0
 263 747 295 830 349 897 c 1
 175 1063 l 1
 220 1107 l 1
 391 946 l 1
 461 1007 549 1037 645 1037 c 0
 741 1037 829 1004 897 945 c 1
 1069 1107 l 1
 1110 1060 l 1
 940 897 l 1
 995 824 1025 743 1025 660 c 0
 1025 569 994 488 941 423 c 1
 1109 258 l 1
645 353 m 0
 821 353 960 491 960 660 c 0
 960 829 820 968 645 968 c 0
 470 968 329 830 329 660 c 0
 329 490 470 353 645 353 c 0
EndSplineSet
EndChar

StartChar: d
Encoding: 100 100 288
Width: 1123
VWidth: 0
Flags: W
LayerCount: 2
Fore
SplineSet
525 -18 m 0
 662 -18 812 66 866 221 c 1
 880 0 l 1
 971 0 l 1
 971 1451 l 1
 857 1443 l 1
 857 1067 l 2
 857 983 862 848 867 768 c 1
 820 897 688 998 537 1004 c 0
 255 1016 94 805 94 499 c 0
 94 185 238 -18 525 -18 c 0
521 68 m 0
 289 68 208 261 208 497 c 0
 208 745 300 919 528 919 c 0
 736 919 860 745 860 482 c 1
 861 249 768 68 521 68 c 0
540 492 m 0
EndSplineSet
EndChar

StartChar: dagger
Encoding: 8224 8224 289
Width: 874
VWidth: 0
Flags: W
LayerCount: 2
Fore
SplineSet
393 1042 m 1
 393 1461 l 1
 456 1461 l 1
 456 1042 l 1
 722 1042 l 1
 722 1006 l 1
 462 1006 l 1
 462 115 l 1
 393 115 l 1
 393 1006 l 1
 128 1006 l 1
 128 1042 l 1
 393 1042 l 1
EndSplineSet
EndChar

StartChar: daggerdbl
Encoding: 8225 8225 290
Width: 959
VWidth: 0
Flags: W
LayerCount: 2
Fore
SplineSet
438 584 m 1
 438 1031 l 1
 141 1031 l 1
 141 1127 l 1
 438 1127 l 1
 438 1465 l 1
 503 1465 l 1
 503 1127 l 1
 807 1127 l 1
 807 1031 l 1
 503 1031 l 1
 502 584 l 1
 799 584 l 1
 799 484 l 1
 502 484 l 1
 502 198 l 1
 438 198 l 1
 438 484 l 1
 135 484 l 1
 135 584 l 1
 438 584 l 1
EndSplineSet
EndChar

StartChar: dcroat
Encoding: 273 273 292
Width: 1193
VWidth: 0
Flags: W
LayerCount: 2
Fore
SplineSet
128 1118 m 1
 128 1220 l 1
 591 1220 l 1
 591 1118 l 1
 128 1118 l 1
592 891 m 0
 401 891 301 738 301 499 c 0
 301 265 398 108 592 108 c 0
 798 108 884 252 884 482 c 0
 884 741 807 891 592 891 c 0
1058 0 m 1
 901 0 l 1
 884 163 l 1
 829 45 702 -21 565 -21 c 0
 286 -21 126 198 126 504 c 0
 126 807 304 1019 564 1019 c 0
 696 1019 822 955 888 862 c 1
 884 928 884 991 884 1053 c 2
 884 1417 l 1
 1058 1431 l 1
 1058 0 l 1
EndSplineSet
EndChar

StartChar: degree
Encoding: 176 176 293
Width: 780
VWidth: 0
Flags: W
LayerCount: 2
Fore
SplineSet
380 926 m 0
 493 926 580 1024 580 1127 c 0
 580 1232 493 1327 380 1327 c 0
 270 1327 182 1232 182 1127 c 0
 182 1022 268 926 380 926 c 0
379 832 m 0
 248 832 102 956 102 1123 c 0
 102 1287 246 1415 379 1415 c 0
 516 1415 659 1287 659 1123 c 0
 659 964 519 832 379 832 c 0
EndSplineSet
EndChar

StartChar: delta
Encoding: 948 948 294
Width: 484
VWidth: 0
Flags: W
LayerCount: 2
Fore
SplineSet
229 485 m 0
 152 485 113 542 113 600 c 0
 113 658 152 715 229 715 c 0
 307 715 346 658 346 600 c 0
 346 542 307 485 229 485 c 0
EndSplineSet
EndChar

StartChar: dieresis
Encoding: 168 168 295
Width: 716
VWidth: 0
Flags: W
LayerCount: 2
Fore
SplineSet
140 1155 m 1
 140 1314 l 1
 241 1314 l 1
 241 1155 l 1
 140 1155 l 1
479 1155 m 1
 479 1314 l 1
 581 1314 l 1
 581 1155 l 1
 479 1155 l 1
361 986 m 0
EndSplineSet
EndChar

StartChar: dieresistonos
Encoding: 901 901 296
Width: 439
VWidth: 0
Flags: W
LayerCount: 2
Fore
SplineSet
217 485 m 0
 140 485 101 542 101 600 c 0
 101 658 140 715 217 715 c 0
 295 715 333 658 333 600 c 0
 333 542 295 485 217 485 c 0
217 986 m 0
EndSplineSet
EndChar

StartChar: divide
Encoding: 247 247 297
Width: 996
VWidth: 0
Flags: W
LayerCount: 2
Fore
SplineSet
416 21 m 1
 416 193 l 1
 523 193 l 1
 523 21 l 1
 416 21 l 1
61 497 m 1
 61 600 l 1
 914 600 l 1
 914 497 l 1
 61 497 l 1
416 892 m 1
 416 1070 l 1
 571 1070 l 1
 571 892 l 1
 416 892 l 1
EndSplineSet
EndChar

StartChar: dotaccent
Encoding: 729 729 298
Width: 299
VWidth: 0
Flags: W
LayerCount: 2
Fore
SplineSet
93 1215 m 1
 93 1374 l 1
 212 1374 l 1
 212 1215 l 1
 93 1215 l 1
152 986 m 0
EndSplineSet
EndChar

StartChar: dotlessi
Encoding: 305 305 299
Width: 363
VWidth: 0
Flags: W
LayerCount: 2
Fore
SplineSet
146 0 m 1
 146 988 l 1
 230 988 l 1
 230 0 l 1
 146 0 l 1
182 986 m 0
327 10 m 0
EndSplineSet
EndChar

StartChar: e
Encoding: 101 101 300
Width: 1030
VWidth: 0
Flags: W
LayerCount: 2
Fore
SplineSet
203 562 m 1
 218 771 358 919 552 919 c 0
 746 919 813 792 819 562 c 1
 203 562 l 1
555 -18 m 0
 699 -18 808 13 904 69 c 1
 870 141 l 1
 747 77 661 68 564 68 c 0
 361 68 200 182 200 483 c 1
 921 483 l 1
 921 483 926 521 926 550 c 0
 926 827 790 1005 550 1005 c 0
 307 1005 94 800 94 485 c 0
 94 171 286 -18 555 -18 c 0
504 986 m 0
908 10 m 0
504 0 m 0
EndSplineSet
EndChar

StartChar: eight
Encoding: 56 56 308
Width: 1205
VWidth: 0
Flags: W
LayerCount: 2
Fore
SplineSet
600 -31 m 0
 363 -31 172 94 172 329 c 0
 172 507 291 652 503 704 c 1
 313 757 202 868 202 1040 c 0
 202 1246 359 1368 601 1368 c 0
 841 1368 996 1246 996 1040 c 0
 996 866 891 755 722 704 c 1
 915 653 1028 508 1028 329 c 0
 1028 95 840 -31 600 -31 c 0
600 85 m 0
 778 85 926 185 926 351 c 0
 926 510 788 617 600 654 c 1
 414 617 270 509 270 351 c 0
 270 185 423 85 600 85 c 0
600 746 m 1
 793 787 884 891 884 1046 c 0
 884 1193 744 1257 600 1257 c 0
 458 1257 313 1193 313 1046 c 0
 313 891 409 787 600 746 c 1
EndSplineSet
EndChar

StartChar: ellipsis
Encoding: 8230 8230 309
Width: 1354
VWidth: 0
Flags: W
LayerCount: 2
Fore
SplineSet
1127 -11 m 0
 1047 -11 1006 49 1006 109 c 0
 1006 169 1046 229 1127 229 c 0
 1208 229 1249 169 1249 109 c 0
 1249 49 1208 -11 1127 -11 c 0
678 -11 m 0
 598 -11 557 49 557 109 c 0
 557 169 597 229 678 229 c 0
 759 229 799 169 799 109 c 0
 799 49 759 -11 678 -11 c 0
228 -11 m 0
 148 -11 107 49 107 109 c 0
 107 169 147 229 228 229 c 0
 309 229 349 169 349 109 c 0
 349 49 309 -11 228 -11 c 0
EndSplineSet
EndChar

StartChar: emdash
Encoding: 8212 8212 311
Width: 2388
VWidth: 0
Flags: W
LayerCount: 2
Fore
SplineSet
168 520 m 1
 168 621 l 1
 2203 621 l 1
 2203 520 l 1
 168 520 l 1
EndSplineSet
EndChar

StartChar: endash
Encoding: 8211 8211 312
Width: 1206
VWidth: 0
Flags: W
LayerCount: 2
Fore
SplineSet
128 520 m 1
 128 621 l 1
 1052 621 l 1
 1052 520 l 1
 128 520 l 1
EndSplineSet
EndChar

StartChar: eng
Encoding: 331 331 313
Width: 1137
VWidth: 0
Flags: W
LayerCount: 2
Fore
SplineSet
658 -237 m 2
 893 -237 921 -100 921 172 c 2
 921 594 l 2
 921 873 830 1005 604 1005 c 0
 460 1005 354 952 288 824 c 1
 273 986 l 1
 169 986 l 1
 169 0 l 1
 283 0 l 1
 283 579 l 2
 283 607 286 634 286 668 c 1
 312 809 383 919 593 919 c 0
 767 919 807 806 807 630 c 2
 807 122 l 2
 807 -94 790 -119 617 -119 c 2
 594 -119 l 1
 594 -237 l 1
 658 -237 l 2
EndSplineSet
EndChar

StartChar: epsilon
Encoding: 949 949 315
Width: 484
VWidth: 0
Flags: W
LayerCount: 2
Fore
SplineSet
229 485 m 0
 152 485 113 542 113 600 c 0
 113 658 152 715 229 715 c 0
 307 715 346 658 346 600 c 0
 346 542 307 485 229 485 c 0
243 986 m 0
EndSplineSet
EndChar

StartChar: epsilontonos
Encoding: 941 941 316
Width: 484
VWidth: 0
Flags: W
LayerCount: 2
Fore
SplineSet
229 485 m 0
 152 485 113 542 113 600 c 0
 113 658 152 715 229 715 c 0
 307 715 346 658 346 600 c 0
 346 542 307 485 229 485 c 0
EndSplineSet
EndChar

StartChar: equal
Encoding: 61 61 317
Width: 1161
VWidth: 0
Flags: W
LayerCount: 2
Fore
SplineSet
148 354 m 1
 997 354 l 1
 997 442 l 1
 148 442 l 1
 148 354 l 1
146 758 m 1
 997 758 l 1
 997 843 l 1
 146 843 l 1
 146 758 l 1
EndSplineSet
EndChar

StartChar: eta
Encoding: 951 951 318
Width: 484
VWidth: 0
Flags: W
LayerCount: 2
Fore
SplineSet
229 485 m 0
 152 485 113 542 113 600 c 0
 113 658 152 715 229 715 c 0
 307 715 346 658 346 600 c 0
 346 542 307 485 229 485 c 0
243 986 m 0
EndSplineSet
EndChar

StartChar: etatonos
Encoding: 942 942 319
Width: 484
VWidth: 0
Flags: W
LayerCount: 2
Fore
SplineSet
229 485 m 0
 152 485 113 542 113 600 c 0
 113 658 152 715 229 715 c 0
 307 715 346 658 346 600 c 0
 346 542 307 485 229 485 c 0
EndSplineSet
EndChar

StartChar: eth
Encoding: 240 240 320
Width: 1231
VWidth: 0
Flags: W
LayerCount: 2
Fore
SplineSet
603 -27 m 0
 292 -27 148 210 148 448 c 0
 148 718 319 900 580 900 c 0
 761 900 865 825 931 769 c 1
 886 868 795 1002 565 1222 c 1
 299 1112 l 1
 276 1200 l 1
 508 1288 l 1
 272 1490 l 1
 410 1490 l 1
 563 1330 l 1
 844 1436 l 1
 870 1354 l 1
 620 1261 l 1
 794 1079 903 942 966 826 c 1
 1035 693 1059 587 1059 464 c 0
 1059 204 923 -27 603 -27 c 0
608 55 m 0
 831 55 953 227 953 430 c 0
 953 604 832 804 602 804 c 0
 388 804 262 630 262 446 c 0
 262 255 369 55 608 55 c 0
EndSplineSet
EndChar

StartChar: exclam
Encoding: 33 33 321
Width: 384
VWidth: 0
Flags: W
LayerCount: 2
Fore
SplineSet
258 1301 m 1
 212 382 l 1
 171 382 l 1
 121 1301 l 1
 121 1378 l 1
 258 1378 l 1
 258 1301 l 1
193 -14 m 0
 116 -14 92 41 92 89 c 0
 92 137 116 191 193 191 c 0
 273 191 295 137 295 89 c 0
 295 41 273 -14 193 -14 c 0
EndSplineSet
EndChar

StartChar: exclamdown
Encoding: 161 161 322
Width: 553
VWidth: 0
Flags: W
LayerCount: 2
Fore
SplineSet
336 84 m 1
 336 6 l 1
 199 6 l 1
 199 84 l 1
 241 1003 l 1
 282 1003 l 1
 336 84 l 1
270 1192 m 0
 192 1192 169 1247 169 1294 c 0
 169 1341 191 1398 270 1398 c 0
 348 1398 373 1342 373 1294 c 0
 373 1247 348 1192 270 1192 c 0
EndSplineSet
EndChar

StartChar: f
Encoding: 102 102 323
Width: 638
VWidth: 0
Flags: W
LayerCount: 2
Fore
SplineSet
249 0 m 1
 363 0 l 1
 363 919 l 1
 599 919 l 1
 599 986 l 1
 363 986 l 1
 363 1042 l 2
 363 1249 422 1309 539 1309 c 0
 572 1309 614 1303 635 1299 c 1
 639 1389 l 1
 658 1387 538 1403 504 1403 c 0
 339 1403 249 1297 249 1061 c 2
 249 987 l 1
 59 970 l 1
 54 919 l 1
 249 919 l 1
 249 0 l 1
EndSplineSet
EndChar

StartChar: five
Encoding: 53 53 324
Width: 1073
VWidth: 0
Flags: W
LayerCount: 2
Fore
SplineSet
479 -29 m 0
 347 -29 262 -15 136 95 c 1
 176 187 l 1
 267 118 351 79 508 79 c 0
 738 79 894 224 894 428 c 0
 894 597 788 735 549 735 c 0
 446 735 366 709 309 647 c 1
 219 656 l 1
 254 1378 l 1
 934 1378 l 1
 924 1267 l 1
 311 1267 l 1
 304 1080 311 946 306 769 c 1
 398 830 479 840 575 840 c 0
 877 840 995 651 995 433 c 0
 995 155 795 -29 479 -29 c 0
EndSplineSet
EndChar

StartChar: four
Encoding: 52 52 325
Width: 1178
VWidth: 0
Flags: W
LayerCount: 2
Fore
SplineSet
827 1378 m 1
 892 1378 l 1
 892 452 l 1
 1063 452 l 1
 1053 366 l 1
 892 366 l 1
 892 -5 l 1
 817 -5 l 1
 817 366 l 1
 176 366 l 1
 176 480 l 1
 827 1378 l 1
816 454 m 1
 815 1221 l 1
 262 454 l 1
 816 454 l 1
EndSplineSet
EndChar

StartChar: fraction
Encoding: 8260 8260 326
Width: 1107
VWidth: 0
Flags: W
LayerCount: 2
Fore
SplineSet
135 0 m 1
 926 1448 l 1
 985 1448 l 1
 193 0 l 1
 135 0 l 1
EndSplineSet
EndChar

StartChar: g
Encoding: 103 103 327
Width: 1143
VWidth: 0
Flags: W
LayerCount: 2
Fore
SplineSet
535 87 m 0
 284 87 208 326 208 490 c 0
 208 651 277 919 532 919 c 0
 787 920 890 731 890 548 c 2
 890 445 l 1
 892 270 784 87 535 87 c 0
477 -380 m 0
 908 -400 994 -144 1004 63 c 1
 1004 985 l 1
 897 985 l 1
 885 819 l 1
 815 935 688 1006 554 1006 c 0
 206 1006 94 731 94 481 c 0
 94 273 217 0 540 0 c 0
 713 0 853 117 887 234 c 1
 887 234 887 81 887 70 c 0
 887 -205 743 -305 479 -293 c 0
 379 -288 283 -251 260 -242 c 1
 237 -327 l 1
 301 -345 379 -375 477 -380 c 0
578 986 m 0
EndSplineSet
EndChar

StartChar: gamma
Encoding: 947 947 328
Width: 484
VWidth: 0
Flags: W
LayerCount: 2
Fore
SplineSet
229 485 m 0
 152 485 113 542 113 600 c 0
 113 658 152 715 229 715 c 0
 307 715 346 658 346 600 c 0
 346 542 307 485 229 485 c 0
EndSplineSet
EndChar

StartChar: grave
Encoding: 96 96 333
Width: 689
VWidth: 0
Flags: W
LayerCount: 2
Fore
SplineSet
431 1176 m 1
 150 1523 l 1
 325 1523 l 1
 486 1176 l 1
 431 1176 l 1
318 986 m 0
EndSplineSet
EndChar

StartChar: greater
Encoding: 62 62 334
Width: 1142
VWidth: 0
Flags: W
LayerCount: 2
Fore
SplineSet
140 1049 m 1
 1012 591 l 1
 1012 525 l 1
 137 116 l 1
 137 215 l 1
 916 563 l 1
 140 948 l 1
 140 1049 l 1
EndSplineSet
EndChar

StartChar: greaterequal
Encoding: 8805 8805 335
Width: 1141
VWidth: 0
Flags: W
LayerCount: 2
Fore
SplineSet
162 1209 m 1
 982 730 l 1
 982 674 l 1
 157 225 l 1
 157 321 l 1
 920 702 l 1
 162 1111 l 1
 162 1209 l 1
119 10 m 1
 119 107 l 1
 1007 108 l 1
 1007 10 l 1
 119 10 l 1
EndSplineSet
EndChar

StartChar: guillemotleft
Encoding: 171 171 336
Width: 936
VWidth: 0
Flags: W
LayerCount: 2
Fore
SplineSet
456 841 m 1
 206 506 l 1
 449 165 l 1
 376 147 l 1
 159 453 l 1
 119 496 l 1
 379 860 l 1
 456 841 l 1
534 506 m 1
 756 165 l 1
 704 147 l 1
 442 516 l 1
 706 860 l 1
 758 841 l 1
 534 506 l 1
EndSplineSet
EndChar

StartChar: guillemotright
Encoding: 187 187 337
Width: 911
VWidth: 0
Flags: W
LayerCount: 2
Fore
SplineSet
189 860 m 1
 453 492 l 1
 188 147 l 1
 135 165 l 1
 359 506 l 1
 135 841 l 1
 189 860 l 1
530 860 m 1
 771 492 l 1
 527 147 l 1
 454 165 l 1
 700 506 l 1
 459 841 l 1
 530 860 l 1
EndSplineSet
EndChar

StartChar: guilsinglleft
Encoding: 8249 8249 338
Width: 597
VWidth: 0
Flags: W
LayerCount: 2
Fore
SplineSet
222 536 m 1
 406 173 l 1
 338 173 l 1
 144 536 l 1
 340 891 l 1
 412 891 l 1
 222 536 l 1
EndSplineSet
EndChar

StartChar: guilsinglright
Encoding: 8250 8250 339
Width: 607
VWidth: 0
Flags: W
LayerCount: 2
Fore
SplineSet
437 537 m 1
 244 173 l 1
 173 173 l 1
 362 537 l 1
 177 891 l 1
 248 891 l 1
 437 537 l 1
EndSplineSet
EndChar

StartChar: h
Encoding: 104 104 340
Width: 1059
VWidth: 0
Flags: W
LayerCount: 2
Fore
SplineSet
161 1444 m 1
 161 0 l 1
 275 0 l 1
 275 567 l 2
 275 595 278 623 278 658 c 1
 302 797 385 919 593 919 c 0
 761 919 806 812 806 606 c 2
 806 0 l 1
 920 0 l 1
 920 605 l 2
 920 851 829 1005 609 1005 c 0
 475 1005 328 945 269 810 c 1
 269 810 275 1047 275 1029 c 2
 275 1456 l 1
 161 1444 l 1
532 986 m 0
532 494 m 0
EndSplineSet
EndChar

StartChar: hbar
Encoding: 295 295 341
Width: 1196
VWidth: 0
Flags: W
LayerCount: 2
Fore
SplineSet
275 1269 m 1
 275 1347 l 1
 358 1365 l 1
 358 1269 l 1
 602 1269 l 1
 602 1188 l 1
 358 1188 l 1
 358 828 l 1
 448 948 578 1016 751 1016 c 0
 972 1016 1027 829 1027 597 c 2
 1027 0 l 1
 944 0 l 1
 944 532 l 2
 944 797 912 924 705 924 c 0
 517 924 370 779 358 678 c 1
 358 0 l 1
 275 0 l 1
 275 1188 l 1
 194 1188 l 1
 194 1269 l 1
 275 1269 l 1
EndSplineSet
EndChar

StartChar: hungarumlaut
Encoding: 733 733 343
Width: 650
VWidth: 0
Flags: W
LayerCount: 2
Fore
SplineSet
111 1212 m 1
 253 1494 l 1
 327 1494 l 1
 163 1212 l 1
 111 1212 l 1
278 1212 m 1
 420 1494 l 1
 488 1494 l 1
 333 1212 l 1
 278 1212 l 1
299 986 m 0
EndSplineSet
EndChar

StartChar: hyphen
Encoding: 45 45 344
Width: 722
VWidth: 0
Flags: W
LayerCount: 2
Fore
SplineSet
138 482 m 1
 138 573 l 1
 562 573 l 1
 562 482 l 1
 138 482 l 1
EndSplineSet
EndChar

StartChar: i
Encoding: 105 105 345
Width: 417
VWidth: 0
Flags: W
LayerCount: 2
Fore
SplineSet
160 0 m 1
 160 986 l 1
 274 986 l 1
 274 0 l 1
 160 0 l 1
160 1209 m 1
 160 1354 l 1
 274 1354 l 1
 274 1209 l 1
 160 1209 l 1
EndSplineSet
EndChar

StartChar: infinity
Encoding: 8734 8734 352
Width: 1622
VWidth: 0
Flags: W
LayerCount: 2
Fore
SplineSet
432 231 m 0
 225 231 106 401 106 600 c 0
 106 781 249 925 428 925 c 0
 584 925 699 827 811 678 c 1
 916 822 1031 925 1190 925 c 0
 1397 925 1511 782 1511 584 c 0
 1511 376 1369 231 1188 231 c 0
 1050 231 935 313 811 478 c 1
 702 334 584 231 432 231 c 0
434 347 m 0
 555 347 660 453 746 579 c 1
 661 713 558 813 427 813 c 0
 292 813 209 706 209 581 c 0
 209 463 299 347 434 347 c 0
1190 347 m 0
 1332 347 1399 461 1399 605 c 0
 1399 718 1310 813 1186 813 c 0
 1060 813 958 701 877 581 c 1
 989 428 1074 347 1190 347 c 0
EndSplineSet
EndChar

StartChar: integral
Encoding: 8747 8747 353
Width: 672
VWidth: 0
Flags: W
LayerCount: 2
Fore
SplineSet
148 -390 m 0
 102 -390 75 -383 38 -372 c 1
 37 -246 l 1
 58 -256 90 -258 122 -258 c 0
 231 -258 253 -184 253 -46 c 2
 253 1229 l 2
 253 1440 311 1598 492 1598 c 0
 538 1598 565 1588 602 1577 c 1
 603 1451 l 1
 582 1461 548 1465 516 1465 c 0
 407 1465 384 1393 384 1255 c 2
 384 -23 l 2
 384 -234 329 -390 148 -390 c 0
EndSplineSet
EndChar

StartChar: iota
Encoding: 953 953 355
Width: 484
VWidth: 0
Flags: W
LayerCount: 2
Fore
SplineSet
229 485 m 0
 152 485 113 542 113 600 c 0
 113 658 152 715 229 715 c 0
 307 715 346 658 346 600 c 0
 346 542 307 485 229 485 c 0
243 986 m 0
EndSplineSet
EndChar

StartChar: iotadieresis
Encoding: 970 970 356
Width: 915
VWidth: 0
Flags: W
LayerCount: 2
Fore
SplineSet
529 485 m 0
 452 485 413 542 413 600 c 0
 413 658 452 715 529 715 c 0
 607 715 645 658 645 600 c 0
 645 542 607 485 529 485 c 0
325 1314 m 1
 325 1155 l 1
 225 1155 l 1
 225 1314 l 1
 325 1314 l 1
665 1314 m 1
 665 1155 l 1
 564 1155 l 1
 564 1314 l 1
 665 1314 l 1
EndSplineSet
EndChar

StartChar: iotadieresistonos
Encoding: 912 912 357
Width: 600
VWidth: 0
Flags: W
LayerCount: 2
Fore
SplineSet
240 826 m 0
 163 826 124 883 124 941 c 0
 124 999 163 1057 240 1057 c 0
 318 1057 356 999 356 941 c 0
 356 883 318 826 240 826 c 0
327 485 m 0
 250 485 211 542 211 600 c 0
 211 658 250 715 327 715 c 0
 405 715 444 658 444 600 c 0
 444 542 405 485 327 485 c 0
EndSplineSet
EndChar

StartChar: iotatonos
Encoding: 943 943 358
Width: 484
VWidth: 0
Flags: W
LayerCount: 2
Fore
SplineSet
229 485 m 0
 152 485 113 542 113 600 c 0
 113 658 152 715 229 715 c 0
 307 715 346 658 346 600 c 0
 346 542 307 485 229 485 c 0
EndSplineSet
EndChar

StartChar: j
Encoding: 106 106 360
Width: 343
VWidth: 0
Flags: W
LayerCount: 2
Fore
SplineSet
111 1209 m 1
 227 1209 l 1
 227 1364 l 1
 111 1364 l 1
 111 1209 l 1
-57 -411 m 1
 -18 -411 l 2
 177 -411 227 -359 227 -139 c 2
 227 985 l 1
 111 985 l 1
 111 -84 l 2
 111 -243 150 -303 -33 -303 c 2
 -70 -303 l 1
 -57 -411 l 1
EndSplineSet
EndChar

StartChar: k
Encoding: 107 107 362
Width: 963
VWidth: 0
Flags: W
LayerCount: 2
Fore
SplineSet
161 1444 m 1
 275 1457 l 1
 275 657 l 1
 269 464 l 1
 825 986 l 1
 958 986 l 1
 469 528 l 1
 964 0 l 1
 832 0 l 1
 408 473 l 1
 275 358 l 1
 275 0 l 1
 161 0 l 1
 161 1444 l 1
486 0 m 0
EndSplineSet
EndChar

StartChar: kgreenlandic
Encoding: 312 312 364
Width: 1047
VWidth: 0
Flags: W
LayerCount: 2
Fore
SplineSet
130 0 m 1
 130 999 l 1
 281 999 l 1
 281 520 l 1
 292 532 303 544 315 557 c 0
 431 690 589 855 724 998 c 1
 917 998 l 1
 502 555 l 1
 946 0 l 1
 757 0 l 1
 392 469 l 1
 281 373 l 1
 281 0 l 1
 130 0 l 1
EndSplineSet
EndChar

StartChar: l
Encoding: 108 108 365
Width: 447
VWidth: 0
Flags: W
LayerCount: 2
Fore
SplineSet
342 -12 m 0
 359 -12 378 -11 397 -10 c 1
 390 68 l 1
 379 68 l 2
 294 68 282 124 282 236 c 2
 282 1456 l 1
 168 1444 l 1
 168 242 l 2
 168 26 231 -12 342 -12 c 0
224 986 m 0
425 986 m 0
224 0 m 0
EndSplineSet
EndChar

StartChar: lambda
Encoding: 955 955 367
Width: 484
VWidth: 0
Flags: W
LayerCount: 2
Fore
SplineSet
229 485 m 0
 152 485 113 542 113 600 c 0
 113 658 152 715 229 715 c 0
 307 715 346 658 346 600 c 0
 346 542 307 485 229 485 c 0
EndSplineSet
EndChar

StartChar: ldot
Encoding: 320 320 370
Width: 1062
VWidth: 0
Flags: W
LayerCount: 2
Fore
SplineSet
802 511 m 1
 802 691 l 1
 955 691 l 1
 955 511 l 1
 802 511 l 1
401 -18 m 0
 244 -18 135 45 135 305 c 2
 135 1417 l 1
 309 1431 l 1
 309 360 l 2
 309 163 313 116 445 116 c 0
 471 116 513 118 542 122 c 1
 551 -3 l 1
 485 -14 427 -18 401 -18 c 0
EndSplineSet
EndChar

StartChar: less
Encoding: 60 60 371
Width: 1129
VWidth: 0
Flags: W
LayerCount: 2
Fore
SplineSet
981 939 m 1
 199 563 l 1
 979 207 l 1
 978 109 l 1
 107 527 l 1
 107 592 l 1
 981 1041 l 1
 981 939 l 1
EndSplineSet
EndChar

StartChar: lessequal
Encoding: 8804 8804 372
Width: 1144
VWidth: 0
Flags: W
LayerCount: 2
Fore
SplineSet
974 1106 m 1
 220 708 l 1
 974 319 l 1
 974 222 l 1
 160 671 l 1
 160 730 l 1
 974 1206 l 1
 974 1106 l 1
115 10 m 1
 115 108 l 1
 1010 107 l 1
 1010 10 l 1
 115 10 l 1
EndSplineSet
EndChar

StartChar: logicalnot
Encoding: 172 172 373
Width: 1127
VWidth: 0
Flags: W
LayerCount: 2
Fore
SplineSet
991 738 m 1
 991 242 l 1
 918 242 l 1
 918 646 l 1
 101 646 l 1
 101 738 l 1
 991 738 l 1
EndSplineSet
EndChar

StartChar: lozenge
Encoding: 9674 9674 374
Width: 1096
VWidth: 0
Flags: W
LayerCount: 2
Fore
SplineSet
954 720 m 1
 573 -46 l 1
 492 -46 l 1
 116 717 l 1
 497 1483 l 1
 580 1483 l 1
 954 720 l 1
530 49 m 1
 651 269 772 494 894 717 c 1
 775 938 658 1159 542 1382 c 1
 419 1164 299 941 177 719 c 1
 298 496 408 265 530 49 c 1
EndSplineSet
EndChar

StartChar: m
Encoding: 109 109 375
Width: 1620
VWidth: 0
Flags: W
LayerCount: 2
Fore
SplineSet
271 545 m 2
 271 581 272 630 272 653 c 1
 299 802 420 919 570 919 c 0
 724 919 775 809 775 545 c 2
 775 0 l 1
 881 0 l 1
 881 495 l 1
 876 546 885 667 885 691 c 1
 925 855 1052 919 1170 919 c 0
 1376 919 1375 694 1375 561 c 2
 1375 0 l 1
 1481 0 l 1
 1481 639 l 2
 1481 879 1377 1005 1182 1005 c 0
 1046 1005 921 946 850 769 c 1
 831 852 772 1005 574 1005 c 0
 458 1005 349 946 264 810 c 1
 249 986 l 1
 161 986 l 1
 161 883 165 0 165 0 c 1
 271 0 l 1
 271 545 l 2
EndSplineSet
EndChar

StartChar: macron
Encoding: 175 175 376
Width: 1090
VWidth: 0
Flags: W
LayerCount: 2
Fore
SplineSet
145 1426 m 1
 145 1532 l 1
 933 1532 l 1
 933 1426 l 1
 145 1426 l 1
539 986 m 0
EndSplineSet
EndChar

StartChar: middot
Encoding: 65546 -1 377
Width: 372
VWidth: 0
Flags: W
LayerCount: 2
Fore
SplineSet
107 511 m 1
 107 691 l 1
 260 691 l 1
 260 511 l 1
 107 511 l 1
EndSplineSet
EndChar

StartChar: minus
Encoding: 8722 8722 378
Width: 1037
VWidth: 0
Flags: W
LayerCount: 2
Fore
SplineSet
68 526 m 1
 68 629 l 1
 946 629 l 1
 946 526 l 1
 68 526 l 1
EndSplineSet
EndChar

StartChar: mu
Encoding: 956 956 379
Width: 451
VWidth: 0
Flags: W
LayerCount: 2
Fore
SplineSet
223 484 m 0
 143 484 102 544 102 604 c 0
 102 664 143 724 223 724 c 0
 304 724 344 664 344 604 c 0
 344 544 304 484 223 484 c 0
EndSplineSet
EndChar

StartChar: multiply
Encoding: 215 215 380
Width: 687
VWidth: 0
Flags: W
LayerCount: 2
Fore
SplineSet
278 558 m 1
 18 873 l 1
 87 927 l 1
 325 630 l 1
 564 927 l 1
 630 874 l 1
 372 558 l 1
 323 601 630 240 630 240 c 1
 559 188 l 1
 325 485 l 1
 91 188 l 1
 18 241 l 1
 278 558 l 1
EndSplineSet
EndChar

StartChar: n
Encoding: 110 110 381
Width: 1078
VWidth: 0
Flags: W
LayerCount: 2
Fore
SplineSet
161 0 m 1
 275 0 l 1
 275 579 l 2
 275 607 278 634 279 668 c 1
 305 809 392 919 602 919 c 0
 776 919 826 806 825 630 c 1
 825 0 l 1
 939 0 l 1
 939 594 l 2
 939 873 839 1005 613 1005 c 0
 468 1005 347 952 281 824 c 1
 266 986 l 1
 161 986 l 1
 161 0 l 1
526 986 m 0
526 0 m 0
EndSplineSet
EndChar

StartChar: nine
Encoding: 57 57 385
Width: 1170
VWidth: 0
Flags: W
LayerCount: 2
Fore
SplineSet
438 -7 m 1
 330 -7 l 1
 866 641 l 1
 786 596 676 560 574 560 c 0
 372 560 178 716 178 957 c 0
 178 1178 332 1370 598 1370 c 0
 880 1370 1001 1167 1001 942 c 0
 1001 762 964 648 791 420 c 1
 654 248 438 -7 438 -7 c 1
592 662 m 0
 816 662 903 804 903 964 c 0
 903 1129 809 1270 600 1270 c 0
 393 1270 275 1122 275 958 c 0
 275 783 398 662 592 662 c 0
EndSplineSet
EndChar

StartChar: notequal
Encoding: 8800 8800 386
Width: 1087
VWidth: 0
Flags: W
LayerCount: 2
Fore
SplineSet
111 423 m 1
 399 423 l 1
 568 753 l 1
 116 753 l 1
 111 834 l 1
 604 834 l 1
 738 1120 l 1
 797 1111 l 1
 689 834 l 1
 949 834 l 1
 954 754 l 1
 654 754 l 1
 479 423 l 1
 952 423 l 1
 954 341 l 1
 445 341 l 1
 306 48 l 1
 249 61 l 1
 357 341 l 1
 116 341 l 1
 111 423 l 1
EndSplineSet
EndChar

StartChar: nu
Encoding: 957 957 388
Width: 484
VWidth: 0
Flags: W
LayerCount: 2
Fore
SplineSet
229 485 m 0
 152 485 113 542 113 600 c 0
 113 658 152 715 229 715 c 0
 307 715 346 658 346 600 c 0
 346 542 307 485 229 485 c 0
EndSplineSet
EndChar

StartChar: numbersign
Encoding: 35 35 389
Width: 1105
VWidth: 0
Flags: W
LayerCount: 2
Fore
SplineSet
312 449 m 1
 374 871 l 1
 232 871 l 1
 241 940 l 1
 390 940 l 1
 471 1326 l 1
 571 1326 l 1
 494 940 l 1
 756 940 l 1
 819 1326 l 1
 883 1326 l 1
 827 940 l 1
 925 940 l 1
 913 872 l 1
 816 872 l 1
 746 449 l 1
 851 449 l 1
 842 376 l 1
 740 376 l 1
 655 -26 l 1
 559 -26 l 1
 640 376 l 1
 375 376 l 1
 301 -26 l 1
 235 -26 l 1
 302 376 l 1
 163 376 l 1
 172 449 l 1
 312 449 l 1
389 449 m 1
 653 449 l 1
 743 872 l 1
 479 872 l 1
 389 449 l 1
EndSplineSet
EndChar

StartChar: o
Encoding: 111 111 390
Width: 1098
VWidth: 0
Flags: W
LayerCount: 2
Fore
SplineSet
549 -18 m 0
 817 -18 1004 203 1004 490 c 0
 1004 790 842 1005 549 1005 c 0
 264 1005 94 785 94 490 c 0
 94 200 264 -18 549 -18 c 0
549 68 m 0
 308 68 206 259 206 488 c 0
 206 726 308 919 549 919 c 0
 796 919 892 725 892 487 c 0
 892 259 799 68 549 68 c 0
549 986 m 0
EndSplineSet
EndChar

StartChar: ogonek
Encoding: 731 731 395
Width: 560
VWidth: 0
Flags: W
LayerCount: 2
Fore
SplineSet
278 -408 m 0
 184 -408 116 -351 116 -253 c 0
 116 -170 191 -93 290 -36 c 1
 392 -25 l 1
 281 -104 184 -174 184 -241 c 0
 184 -298 240 -330 276 -330 c 0
 323 -330 331 -329 403 -301 c 1
 402 -301 397 -384 397 -384 c 1
 377 -395 319 -408 278 -408 c 0
393 10 m 0
EndSplineSet
EndChar

StartChar: omega
Encoding: 969 969 400
Width: 484
VWidth: 0
Flags: W
LayerCount: 2
Fore
SplineSet
229 485 m 0
 152 485 113 542 113 600 c 0
 113 658 152 715 229 715 c 0
 307 715 346 658 346 600 c 0
 346 542 307 485 229 485 c 0
243 986 m 0
EndSplineSet
EndChar

StartChar: omegatonos
Encoding: 974 974 401
Width: 484
VWidth: 0
Flags: W
LayerCount: 2
Fore
SplineSet
229 485 m 0
 152 485 113 542 113 600 c 0
 113 658 152 715 229 715 c 0
 307 715 346 658 346 600 c 0
 346 542 307 485 229 485 c 0
EndSplineSet
EndChar

StartChar: omicron
Encoding: 959 959 402
Width: 1213
VWidth: 0
Flags: W
LayerCount: 2
Fore
SplineSet
598 -23 m 0
 865 -23 1052 203 1052 490 c 0
 1052 790 884 1005 591 1005 c 0
 306 1005 137 785 137 490 c 0
 137 200 320 -23 598 -23 c 0
595 914 m 0
 842 914 935 712 935 487 c 0
 935 268 844 69 594 69 c 0
 345 69 254 268 254 488 c 0
 254 712 346 914 595 914 c 0
606 986 m 0
EndSplineSet
EndChar

StartChar: omicrontonos
Encoding: 972 972 403
Width: 484
VWidth: 0
Flags: W
LayerCount: 2
Fore
SplineSet
229 485 m 0
 152 485 113 542 113 600 c 0
 113 658 152 715 229 715 c 0
 307 715 346 658 346 600 c 0
 346 542 307 485 229 485 c 0
EndSplineSet
EndChar

StartChar: one
Encoding: 49 49 404
Width: 945
VWidth: 0
Flags: W
LayerCount: 2
Fore
SplineSet
850 0 m 1
 180 0 l 1
 180 100 l 1
 498 100 l 1
 498 1253 l 1
 402 1193 293 1158 231 1163 c 1
 231 1266 l 1
 283 1255 432 1326 500 1374 c 1
 587 1374 l 1
 587 100 l 1
 850 100 l 1
 850 0 l 1
EndSplineSet
EndChar

StartChar: ordfeminine
Encoding: 170 170 405
Width: 817
VWidth: 0
Flags: W
LayerCount: 2
Fore
SplineSet
372 795 m 0
 461 795 505 835 536 896 c 1
 532 819 l 1
 615 819 l 1
 606 957 607 929 607 947 c 2
 611 1246 l 1
 611 1416 519 1488 414 1488 c 0
 308 1488 231 1460 175 1342 c 1
 237 1300 l 1
 287 1400 344 1399 417 1399 c 0
 520 1399 544 1343 548 1225 c 1
 548 1212 l 1
 292 1200 176 1165 176 1003 c 0
 176 882 253 795 372 795 c 0
159 639 m 1
 638 639 l 1
 638 715 l 1
 159 715 l 1
 159 639 l 1
389 879 m 0
 302 879 245 912 245 1001 c 0
 245 1160 456 1140 548 1147 c 1
 548 1164 l 1
 573 1023 537 879 389 879 c 0
EndSplineSet
EndChar

StartChar: ordmasculine
Encoding: 186 186 406
Width: 788
VWidth: 0
Flags: W
LayerCount: 2
Fore
SplineSet
396 856 m 0
 510 856 571 967 571 1095 c 0
 571 1230 508 1340 392 1340 c 0
 280 1340 217 1229 217 1098 c 0
 217 962 277 856 396 856 c 0
396 752 m 0
 203 752 103 904 103 1101 c 0
 103 1294 209 1447 394 1447 c 0
 580 1447 683 1292 683 1097 c 0
 683 905 580 752 396 752 c 0
EndSplineSet
EndChar

StartChar: oslash
Encoding: 248 248 407
Width: 1248
VWidth: 0
Flags: W
LayerCount: 2
Fore
SplineSet
316 -281 m 1
 259 -250 l 1
 380 33 l 1
 232 121 150 299 150 490 c 0
 150 764 324 1016 619 1016 c 0
 678 1016 737 1004 784 987 c 1
 904 1288 l 1
 967 1258 l 1
 844 958 l 1
 995 871 1069 688 1069 493 c 0
 1069 230 908 -29 618 -29 c 0
 553 -29 493 -18 441 4 c 1
 316 -281 l 1
414 112 m 1
 752 904 l 1
 713 918 669 926 618 926 c 0
 354 926 247 679 247 481 c 0
 247 342 300 194 414 112 c 1
620 63 m 0
 885 63 973 296 973 497 c 0
 973 651 929 806 812 886 c 1
 473 90 l 1
 515 72 565 63 620 63 c 0
623 986 m 0
EndSplineSet
EndChar

StartChar: p
Encoding: 112 112 410
Width: 1132
VWidth: 0
Flags: W
LayerCount: 2
Fore
SplineSet
161 986 m 1
 252 986 l 1
 266 770 l 1
 320 925 473 1005 610 1005 c 0
 897 1005 1038 800 1038 486 c 0
 1038 180 877 -29 595 -17 c 0
 444 -11 312 92 265 221 c 1
 270 141 275 3 275 -81 c 2
 275 -441 l 1
 161 -449 l 1
 161 986 l 1
604 68 m 0
 832 68 924 240 924 488 c 0
 924 724 848 919 616 919 c 0
 369 919 271 738 272 505 c 1
 272 242 396 68 604 68 c 0
EndSplineSet
EndChar

StartChar: paragraph
Encoding: 182 182 411
Width: 1035
VWidth: 0
Flags: W
LayerCount: 2
Fore
SplineSet
559 -151 m 1
 500 -151 l 1
 500 814 l 1
 282 809 122 992 122 1147 c 0
 122 1254 161 1461 478 1461 c 2
 936 1461 l 1
 936 1375 l 1
 872 1375 l 1
 872 -151 l 1
 814 -151 l 1
 814 1375 l 1
 559 1375 l 1
 559 -151 l 1
EndSplineSet
EndChar

StartChar: parenright
Encoding: 41 41 412
Width: 619
VWidth: 0
Flags: W
LayerCount: 2
Fore
SplineSet
204 -254 m 1
 130 -261 l 1
 317 26 362 296 362 545 c 0
 362 815 322 1057 129 1358 c 1
 206 1351 l 1
 366 1112 453 835 453 540 c 0
 453 253 358 -40 204 -254 c 1
EndSplineSet
EndChar

StartChar: partialdiff
Encoding: 8706 8706 413
Width: 1105
VWidth: 0
Flags: W
LayerCount: 2
Fore
SplineSet
476 -25 m 0
 225 -25 115 165 115 411 c 0
 115 733 300 980 563 980 c 0
 688 980 784 923 846 820 c 1
 846 837 847 867 847 892 c 0
 847 1188 741 1371 544 1371 c 0
 451 1371 359 1330 286 1279 c 1
 274 1413 l 1
 350 1465 454 1503 566 1503 c 0
 837 1503 985 1293 985 834 c 0
 985 412 835 -25 476 -25 c 0
477 108 m 0
 674 108 805 349 834 642 c 1
 802 752 717 851 586 851 c 0
 397 851 249 648 249 410 c 0
 249 228 338 108 477 108 c 0
EndSplineSet
EndChar

StartChar: percent
Encoding: 37 37 414
Width: 1657
VWidth: 0
Flags: W
LayerCount: 2
Fore
SplineSet
352 768 m 0
 468 768 526 878 526 1005 c 0
 526 1138 465 1254 352 1254 c 0
 236 1254 179 1133 179 1005 c 0
 179 871 238 768 352 768 c 0
352 662 m 0
 174 662 64 808 64 1005 c 0
 64 1203 175 1355 352 1355 c 0
 530 1355 643 1206 643 1005 c 0
 643 808 529 662 352 662 c 0
335 -4 m 1
 1058 1330 l 1
 1206 1330 l 1
 458 -4 l 1
 335 -4 l 1
1272 89 m 0
 1408 89 1478 208 1478 336 c 0
 1478 469 1407 582 1272 582 c 0
 1136 582 1067 464 1067 336 c 0
 1067 203 1137 89 1272 89 c 0
1272 -14 m 0
 1062 -14 952 139 952 336 c 0
 952 534 1065 686 1272 686 c 0
 1483 686 1593 537 1593 336 c 0
 1593 139 1480 -14 1272 -14 c 0
EndSplineSet
EndChar

StartChar: period
Encoding: 46 46 415
Width: 433
VWidth: 0
Flags: W
LayerCount: 2
Fore
SplineSet
216 -20 m 0
 138 -20 115 36 115 83 c 0
 115 131 137 186 216 186 c 0
 295 186 318 131 318 83 c 0
 318 35 295 -20 216 -20 c 0
EndSplineSet
EndChar

StartChar: periodcentered
Encoding: 183 183 416
Width: 372
VWidth: 0
Flags: W
LayerCount: 2
Fore
SplineSet
107 511 m 1
 107 691 l 1
 260 691 l 1
 260 511 l 1
 107 511 l 1
EndSplineSet
EndChar

StartChar: perthousand
Encoding: 8240 8240 417
Width: 2129
VWidth: 0
Flags: W
LayerCount: 2
Fore
SplineSet
381 836 m 0
 482 836 532 946 532 1072 c 0
 532 1206 483 1309 378 1309 c 0
 275 1309 226 1200 226 1074 c 0
 226 940 275 836 381 836 c 0
378 724 m 0
 205 724 108 865 108 1074 c 0
 108 1273 204 1419 379 1419 c 0
 556 1419 649 1283 649 1070 c 0
 649 873 550 724 378 724 c 0
246 -20 m 1
 1025 1408 l 1
 1168 1408 l 1
 369 -20 l 1
 246 -20 l 1
1017 85 m 0
 1138 85 1198 197 1198 322 c 0
 1198 455 1141 555 1016 555 c 0
 895 555 836 448 836 322 c 0
 836 188 896 85 1017 85 c 0
1015 -27 m 0
 815 -27 717 113 717 322 c 0
 717 520 813 669 1017 669 c 0
 1221 669 1315 531 1315 320 c 0
 1315 123 1216 -27 1015 -27 c 0
1722 85 m 0
 1843 85 1904 195 1904 322 c 0
 1904 452 1840 555 1720 555 c 0
 1596 555 1536 448 1536 322 c 0
 1536 188 1597 85 1722 85 c 0
1717 -27 m 0
 1519 -27 1421 113 1421 322 c 0
 1421 520 1519 669 1722 669 c 0
 1922 669 2018 535 2018 320 c 0
 2018 123 1918 -27 1717 -27 c 0
EndSplineSet
EndChar

StartChar: phi
Encoding: 966 966 418
Width: 484
VWidth: 0
Flags: W
LayerCount: 2
Fore
SplineSet
229 485 m 0
 152 485 113 542 113 600 c 0
 113 658 152 715 229 715 c 0
 307 715 346 658 346 600 c 0
 346 542 307 485 229 485 c 0
EndSplineSet
EndChar

StartChar: plus
Encoding: 43 43 419
Width: 1065
VWidth: 0
Flags: W
LayerCount: 2
Fore
SplineSet
491 627 m 1
 491 1022 l 1
 565 1022 l 1
 565 627 l 1
 916 627 l 1
 916 548 l 1
 564 548 l 1
 564 145 l 1
 490 145 l 1
 490 548 l 1
 129 548 l 1
 129 627 l 1
 491 627 l 1
EndSplineSet
EndChar

StartChar: plusminus
Encoding: 177 177 420
Width: 1122
VWidth: 0
Flags: W
LayerCount: 2
Fore
SplineSet
516 682 m 1
 516 1094 l 1
 586 1094 l 1
 586 682 l 1
 1001 682 l 1
 1001 598 l 1
 589 598 l 1
 589 193 l 1
 517 193 l 1
 517 598 l 1
 107 598 l 1
 107 682 l 1
 516 682 l 1
107 0 m 1
 107 99 l 1
 1004 99 l 1
 1004 0 l 1
 107 0 l 1
EndSplineSet
EndChar

StartChar: product
Encoding: 8719 8719 421
Width: 1335
VWidth: 0
Flags: W
LayerCount: 2
Fore
SplineSet
1039 0 m 1
 1039 1221 l 1
 298 1221 l 1
 298 0 l 1
 136 0 l 1
 136 1361 l 1
 1200 1361 l 1
 1200 0 l 1
 1039 0 l 1
EndSplineSet
EndChar

StartChar: psi
Encoding: 968 968 422
Width: 484
VWidth: 0
Flags: W
LayerCount: 2
Fore
SplineSet
229 485 m 0
 152 485 113 542 113 600 c 0
 113 658 152 715 229 715 c 0
 307 715 346 658 346 600 c 0
 346 542 307 485 229 485 c 0
EndSplineSet
EndChar

StartChar: q
Encoding: 113 113 423
Width: 1165
VWidth: 0
Flags: W
LayerCount: 2
Fore
SplineSet
1016 986 m 1
 910 986 l 1
 893 788 l 1
 834 940 676 1005 543 1005 c 0
 259 1005 97 789 97 481 c 0
 97 192 277 -23 538 -23 c 0
 660 -23 822 36 909 155 c 1
 903 69 904 -19 904 -102 c 2
 904 -449 l 1
 1016 -443 l 1
 1016 986 l 1
553 61 m 0
 318 61 209 247 209 493 c 0
 209 727 310 921 555 921 c 0
 807 921 896 746 896 530 c 1
 899 253 825 61 553 61 c 0
EndSplineSet
EndChar

StartChar: question
Encoding: 63 63 424
Width: 854
VWidth: 0
Flags: W
LayerCount: 2
Fore
SplineSet
379 378 m 1
 325 374 l 1
 300 555 595 926 595 1119 c 1
 593 1254 496 1296 364 1296 c 0
 260 1296 171 1248 133 1224 c 1
 115 1320 l 1
 191 1388 323 1403 390 1403 c 0
 603 1403 700 1292 700 1120 c 0
 700 853 517 708 379 378 c 1
375 -14 m 0
 296 -14 273 42 273 89 c 0
 273 137 296 191 375 191 c 0
 457 191 482 137 482 89 c 0
 482 41 457 -14 375 -14 c 0
EndSplineSet
EndChar

StartChar: quotedbl
Encoding: 34 34 425
Width: 551
VWidth: 0
Flags: W
LayerCount: 2
Fore
SplineSet
129 976 m 1
 167 976 l 1
 194 1392 l 1
 118 1392 l 1
 129 976 l 1
354 972 m 1
 394 972 l 1
 418 1392 l 1
 343 1392 l 1
 354 972 l 1
EndSplineSet
EndChar

StartChar: quotedblbase
Encoding: 8222 8222 426
Width: 594
VWidth: 0
Flags: W
LayerCount: 2
Fore
SplineSet
60 -235 m 1
 127 177 l 1
 214 177 l 1
 118 -235 l 1
 60 -235 l 1
330 -235 m 1
 393 177 l 1
 486 177 l 1
 384 -235 l 1
 330 -235 l 1
EndSplineSet
EndChar

StartChar: quotedblleft
Encoding: 8220 8220 427
Width: 758
VWidth: 0
Flags: W
LayerCount: 2
Fore
SplineSet
151 826 m 1
 208 1466 l 1
 323 1711 l 1
 288 1073 l 1
 151 826 l 1
438 826 m 1
 503 1466 l 1
 609 1711 l 1
 586 1073 l 1
 438 826 l 1
EndSplineSet
EndChar

StartChar: quotedblright
Encoding: 8221 8221 428
Width: 575
VWidth: 0
Flags: W
LayerCount: 2
Fore
SplineSet
75 1066 m 1
 148 1468 l 1
 246 1468 l 1
 134 1066 l 1
 75 1066 l 1
332 1071 m 1
 407 1468 l 1
 505 1468 l 1
 397 1071 l 1
 332 1071 l 1
EndSplineSet
EndChar

StartChar: quoteleft
Encoding: 8216 8216 429
Width: 466
VWidth: 0
Flags: W
LayerCount: 2
Fore
SplineSet
151 826 m 1
 211 1466 l 1
 317 1711 l 1
 292 1072 l 1
 151 826 l 1
EndSplineSet
EndChar

StartChar: quoteright
Encoding: 8217 8217 430
Width: 457
VWidth: 0
Flags: W
LayerCount: 2
Fore
SplineSet
153 1058 m 1
 227 1468 l 1
 315 1468 l 1
 212 1058 l 1
 153 1058 l 1
EndSplineSet
EndChar

StartChar: quotesinglbase
Encoding: 8218 8218 431
Width: 388
VWidth: 0
Flags: W
LayerCount: 2
Fore
SplineSet
89 -235 m 1
 161 177 l 1
 253 177 l 1
 150 -235 l 1
 89 -235 l 1
EndSplineSet
EndChar

StartChar: quotesingle
Encoding: 39 39 432
Width: 251
VWidth: 0
Flags: W
LayerCount: 2
Fore
SplineSet
88 923 m 1
 78 1359 l 1
 169 1359 l 1
 156 923 l 1
 88 923 l 1
EndSplineSet
EndChar

StartChar: r
Encoding: 114 114 433
Width: 682
VWidth: 0
Flags: W
LayerCount: 2
Fore
SplineSet
161 986 m 1
 247 986 l 1
 261 760 l 1
 333 919 450 998 579 998 c 0
 609 998 637 996 657 993 c 1
 649 903 l 1
 629 908 605 910 586 910 c 0
 411 910 275 748 275 568 c 2
 275 0 l 1
 161 0 l 1
 161 986 l 1
331 986 m 0
331 0 m 0
EndSplineSet
EndChar

StartChar: radical
Encoding: 8730 8730 435
Width: 1160
VWidth: 0
Flags: W
LayerCount: 2
Fore
SplineSet
339 809 m 1
 558 209 l 1
 612 40 l 1
 735 548 858 1055 982 1563 c 1
 1085 1563 l 1
 684 -151 l 1
 558 -151 l 1
 255 676 l 1
 116 648 l 1
 102 758 l 1
 339 809 l 1
EndSplineSet
EndChar

StartChar: registered
Encoding: 174 174 438
Width: 1780
VWidth: 0
Flags: W
LayerCount: 2
Fore
SplineSet
601 289 m 1
 698 289 l 1
 698 673 l 1
 900 673 l 1
 1021 588 1054 467 1159 289 c 1
 1268 289 l 1
 1047 636 1098 625 992 687 c 1
 1205 702 1268 830 1268 942 c 0
 1268 1093 1167 1190 886 1190 c 2
 601 1190 l 1
 601 289 l 1
699 1084 m 1
 899 1084 l 2
 1064 1084 1130 1059 1130 931 c 0
 1130 809 1052 777 909 777 c 2
 699 777 l 1
 699 1084 l 1
872 30 m 0
 430 30 234 345 234 729 c 0
 234 1102 431 1419 865 1419 c 0
 1335 1419 1532 1100 1532 722 c 0
 1532 342 1339 30 872 30 c 0
872 -40 m 0
 1250 -40 1620 179 1620 726 c 0
 1620 1269 1244 1486 865 1486 c 0
 522 1486 146 1272 146 726 c 0
 146 179 528 -40 872 -40 c 0
EndSplineSet
EndChar

StartChar: rho
Encoding: 961 961 439
Width: 1229
VWidth: 0
Flags: W
LayerCount: 2
Fore
SplineSet
130 985 m 1
 242 985 l 1
 255 788 l 1
 307 938 439 1005 583 1005 c 0
 885 1005 1056 796 1056 481 c 0
 1056 189 861 -23 601 -23 c 0
 456 -23 306 53 241 160 c 1
 245 81 246 3 246 -81 c 2
 246 -441 l 1
 130 -449 l 1
 130 985 l 1
588 60 m 0
 828 60 940 241 940 490 c 0
 940 726 837 920 592 920 c 0
 334 920 246 740 247 507 c 1
 247 244 319 60 588 60 c 0
EndSplineSet
EndChar

StartChar: ring
Encoding: 730 730 440
Width: 572
VWidth: 0
Flags: W
LayerCount: 2
Fore
SplineSet
286 1256 m 0
 326 1256 376 1303 376 1363 c 0
 376 1423 333 1474 286 1474 c 0
 246 1474 193 1424 193 1363 c 0
 193 1296 231 1256 286 1256 c 0
290 1213 m 0
 221 1213 131 1256 131 1363 c 0
 131 1474 223 1531 286 1531 c 0
 354 1531 442 1465 442 1363 c 0
 442 1256 351 1213 290 1213 c 0
286 986 m 0
EndSplineSet
EndChar

StartChar: s
Encoding: 115 115 441
Width: 786
VWidth: 0
Flags: W
LayerCount: 2
Fore
SplineSet
394 -18 m 0
 260 -18 137 17 98 36 c 1
 128 116 l 1
 179 98 261 68 401 68 c 0
 564 68 634 130 634 245 c 0
 634 349 602 403 412 461 c 2
 320 489 l 2
 132 546 78 643 77 743 c 1
 77 879 194 1005 412 1005 c 0
 530 1005 598 990 679 955 c 1
 649 870 l 1
 590 896 529 919 424 919 c 0
 262 919 176 843 176 752 c 0
 176 652 228 608 362 569 c 1
 447 542 l 1
 681 470 730 389 730 244 c 1
 725 71 603 -18 394 -18 c 0
399 984 m 0
399 0 m 0
EndSplineSet
EndChar

StartChar: section
Encoding: 167 167 447
Width: 927
VWidth: 0
Flags: W
LayerCount: 2
Fore
SplineSet
147 1189 m 0
 147 1361 300 1443 523 1443 c 0
 611 1443 681 1425 763 1392 c 1
 755 1347 747 1305 739 1260 c 1
 653 1299 576 1316 499 1316 c 0
 371 1316 291 1279 291 1193 c 0
 291 1117 346 1075 521 1006 c 1
 707 930 802 852 802 718 c 0
 802 610 741 522 656 468 c 1
 741 420 792 355 792 253 c 0
 792 74 637 -26 408 -26 c 0
 299 -26 207 -10 134 27 c 1
 134 168 l 1
 219 124 324 99 410 99 c 0
 562 99 647 156 647 242 c 0
 647 328 582 355 424 420 c 1
 223 497 130 575 130 725 c 0
 130 833 192 918 281 964 c 1
 196 1018 147 1081 147 1189 c 0
481 548 m 1
 533 526 l 1
 605 570 663 626 663 699 c 0
 663 806 552 849 399 905 c 1
 327 874 268 817 268 740 c 0
 268 653 331 607 481 548 c 1
EndSplineSet
EndChar

StartChar: semicolon
Encoding: 59 59 448
Width: 449
VWidth: 0
Flags: W
LayerCount: 2
Fore
SplineSet
122 -279 m 1
 174 134 l 1
 296 134 l 1
 183 -279 l 1
 122 -279 l 1
168 843 m 1
 168 1024 l 1
 303 1024 l 1
 303 843 l 1
 168 843 l 1
EndSplineSet
EndChar

StartChar: seven
Encoding: 55 55 449
Width: 956
VWidth: 0
Flags: W
LayerCount: 2
Fore
SplineSet
851 1374 m 1
 851 1278 l 1
 338 1 l 1
 241 1 l 1
 744 1274 l 1
 142 1274 l 1
 116 1374 l 1
 851 1374 l 1
EndSplineSet
EndChar

StartChar: sigma
Encoding: 963 963 450
Width: 484
VWidth: 0
Flags: W
LayerCount: 2
Fore
SplineSet
229 485 m 0
 152 485 113 542 113 600 c 0
 113 658 152 715 229 715 c 0
 307 715 346 658 346 600 c 0
 346 542 307 485 229 485 c 0
EndSplineSet
EndChar

StartChar: sigma1
Encoding: 962 962 451
Width: 484
VWidth: 0
Flags: W
LayerCount: 2
Fore
SplineSet
229 485 m 0
 152 485 113 542 113 600 c 0
 113 658 152 715 229 715 c 0
 307 715 346 658 346 600 c 0
 346 542 307 485 229 485 c 0
EndSplineSet
EndChar

StartChar: six
Encoding: 54 54 452
Width: 1196
VWidth: 0
Flags: W
LayerCount: 2
Fore
SplineSet
590 -24 m 0
 298 -24 170 201 170 434 c 0
 170 658 227 787 473 1081 c 1
 594 1228 725 1354 725 1354 c 1
 852 1354 l 1
 300 737 l 1
 385 785 535 837 640 837 c 0
 849 837 1019 654 1019 403 c 0
 1019 173 868 -24 590 -24 c 0
589 75 m 0
 802 75 916 232 916 400 c 0
 916 583 813 735 611 735 c 0
 381 735 250 579 250 412 c 0
 250 243 373 75 589 75 c 0
EndSplineSet
EndChar

StartChar: slash
Encoding: 47 47 453
Width: 933
VWidth: 0
Flags: W
LayerCount: 2
Fore
SplineSet
100 -218 m 1
 761 1314 l 1
 833 1314 l 1
 170 -218 l 1
 100 -218 l 1
EndSplineSet
EndChar

StartChar: sterling
Encoding: 163 163 455
Width: 1122
VWidth: 0
Flags: W
LayerCount: 2
Fore
SplineSet
136 -13 m 1
 1001 -13 l 1
 996 87 l 1
 363 87 l 2
 315 87 299 83 264 80 c 1
 385 160 396 291 396 466 c 2
 396 629 l 1
 791 629 l 1
 791 714 l 1
 396 714 l 1
 396 884 l 2
 396 1123 456 1288 672 1288 c 0
 771 1288 857 1253 939 1187 c 1
 985 1259 l 1
 910 1323 810 1373 677 1373 c 0
 329 1373 302 1078 302 803 c 2
 302 714 l 1
 128 714 l 1
 128 630 l 1
 302 630 l 1
 302 385 l 2
 302 233 256 117 125 72 c 1
 136 -13 l 1
EndSplineSet
EndChar

StartChar: summation
Encoding: 8721 8721 456
Width: 1236
VWidth: 0
Flags: W
LayerCount: 2
Fore
SplineSet
132 1433 m 1
 1075 1433 l 1
 1075 1326 l 1
 248 1326 l 1
 847 563 l 1
 226 -224 l 1
 1109 -224 l 1
 1109 -341 l 1
 110 -341 l 1
 110 -273 l 1
 694 555 l 1
 132 1363 l 1
 132 1433 l 1
EndSplineSet
EndChar

StartChar: t
Encoding: 116 116 457
Width: 674
VWidth: 0
Flags: W
LayerCount: 2
Fore
SplineSet
455 -18 m 0
 305 -18 197 68 197 261 c 2
 197 919 l 1
 59 919 l 1
 59 974 l 1
 205 986 l 1
 236 1200 l 1
 311 1205 l 1
 311 986 l 1
 614 986 l 1
 614 919 l 1
 311 919 l 1
 311 265 l 2
 311 106 376 68 474 68 c 0
 540 68 601 88 601 88 c 1
 623 8 l 1
 623 8 552 -18 455 -18 c 0
322 494 m 0
322 0 m 0
EndSplineSet
EndChar

StartChar: tau
Encoding: 964 964 458
Width: 484
VWidth: 0
Flags: W
LayerCount: 2
Fore
SplineSet
229 485 m 0
 152 485 113 542 113 600 c 0
 113 658 152 715 229 715 c 0
 307 715 346 658 346 600 c 0
 346 542 307 485 229 485 c 0
EndSplineSet
EndChar

StartChar: tbar
Encoding: 359 359 459
Width: 815
VWidth: 0
Flags: W
LayerCount: 2
Fore
SplineSet
528 -18 m 0
 285 -18 266 101 266 405 c 2
 266 581 l 1
 125 581 l 1
 125 695 l 1
 266 695 l 1
 266 892 l 1
 114 892 l 1
 126 999 l 1
 266 999 l 1
 306 1225 l 1
 419 1233 l 1
 419 999 l 1
 683 999 l 1
 683 892 l 1
 419 892 l 1
 419 695 l 1
 609 695 l 1
 609 581 l 1
 419 581 l 1
 419 334 l 2
 419 147 441 107 563 107 c 0
 580 107 617 112 687 117 c 1
 701 -6 l 1
 587 -16 559 -18 528 -18 c 0
EndSplineSet
EndChar

StartChar: tcommaaccent
Encoding: 539 539 461
Width: 920
VWidth: 0
Flags: W
LayerCount: 2
Fore
SplineSet
588 -20 m 0
 368 -20 276 114 276 344 c 2
 276 973 l 1
 113 973 l 1
 120 1083 l 1
 275 1097 l 1
 332 1348 l 1
 468 1352 l 1
 468 1097 l 1
 788 1097 l 1
 788 973 l 1
 468 973 l 1
 468 344 l 2
 468 176 503 130 625 130 c 0
 664 130 729 135 784 143 c 1
 793 1 l 1
 714 -13 631 -20 588 -20 c 0
374 -5 m 1
 330 -431 l 1
 176 -431 l 1
 288 -5 l 1
 374 -5 l 1
EndSplineSet
EndChar

StartChar: theta
Encoding: 952 952 462
Width: 484
VWidth: 0
Flags: W
LayerCount: 2
Fore
SplineSet
229 485 m 0
 152 485 113 542 113 600 c 0
 113 658 152 715 229 715 c 0
 307 715 346 658 346 600 c 0
 346 542 307 485 229 485 c 0
EndSplineSet
EndChar

StartChar: thorn
Encoding: 254 254 463
Width: 1136
VWidth: 0
Flags: W
LayerCount: 2
Fore
SplineSet
136 1374 m 1
 289 1374 l 1
 289 849 l 1
 367 965 473 1023 609 1023 c 1
 860 1021 1024 800 1024 510 c 0
 1024 244 889 -23 609 -23 c 0
 471 -23 357 31 289 147 c 1
 289 -418 l 1
 136 -418 l 1
 136 1374 l 1
592 103 m 0
 805 103 866 327 866 501 c 0
 866 676 806 897 598 897 c 0
 392 897 288 710 288 501 c 0
 288 291 375 103 592 103 c 0
EndSplineSet
EndChar

StartChar: three
Encoding: 51 51 464
Width: 1186
VWidth: 0
Flags: W
LayerCount: 2
Fore
SplineSet
919 362 m 0
 919 627 697 675 453 680 c 0
 426 680 447 680 421 680 c 1
 421 774 l 1
 455 774 l 1
 649 782 851 813 851 1046 c 0
 851 1235 745 1273 566 1273 c 0
 432 1273 320 1228 249 1165 c 1
 216 1262 l 1
 284 1325 405 1368 611 1368 c 0
 777 1368 973 1286 973 1068 c 0
 973 868 861 763 698 722 c 1
 880 691 1003 581 1003 366 c 0
 1003 129 824 -24 554 -24 c 0
 359 -24 245 40 217 73 c 1
 249 173 l 1
 320 117 404 70 555 70 c 0
 770 70 919 160 919 362 c 0
EndSplineSet
EndChar

StartChar: threequarters
Encoding: 190 190 465
Width: 1566
VWidth: 0
Flags: W
LayerCount: 2
Fore
SplineSet
321 582 m 0
 442 582 564 682 564 825 c 0
 564 929 524 990 436 1029 c 1
 488 1062 546 1111 546 1225 c 0
 546 1363 422 1457 319 1457 c 0
 254 1457 193 1407 155 1346 c 1
 185 1262 l 1
 239 1321 273 1359 327 1359 c 0
 393 1359 456 1323 456 1226 c 0
 456 1112 364 1084 277 1084 c 2
 267 1084 l 1
 267 985 l 1
 284 984 l 1
 396 984 476 947 476 830 c 0
 476 737 395 671 317 671 c 0
 270 671 243 703 191 766 c 1
 149 691 l 1
 190 620 248 582 321 582 c 0
1263 54 m 1
 1313 54 l 1
 1313 252 l 1
 1402 252 l 1
 1389 336 l 1
 1314 336 l 1
 1314 823 l 1
 1250 823 l 1
 905 309 l 1
 905 252 l 1
 1263 252 l 1
 1263 54 l 1
373 -13 m 1
 434 -13 l 1
 1230 1448 l 1
 1149 1448 l 1
 373 -13 l 1
986 336 m 1
 1265 709 l 1
 1262 571 1260 559 1259 336 c 1
 986 336 l 1
EndSplineSet
EndChar

StartChar: tilde
Encoding: 732 732 466
Width: 892
VWidth: 0
Flags: W
LayerCount: 2
Fore
SplineSet
158 1216 m 1
 217 1222 l 1
 222 1305 242 1307 278 1309 c 1
 235 1309 489 1222 557 1222 c 0
 614 1222 677 1186 677 1393 c 1
 614 1393 l 1
 609 1330 613 1312 565 1308 c 1
 588 1308 416 1393 309 1393 c 0
 251 1393 158 1379 158 1216 c 1
417 986 m 0
EndSplineSet
EndChar

StartChar: tonos
Encoding: 900 900 467
Width: 439
VWidth: 0
Flags: W
LayerCount: 2
Fore
SplineSet
217 485 m 0
 140 485 101 542 101 600 c 0
 101 658 140 715 217 715 c 0
 295 715 333 658 333 600 c 0
 333 542 295 485 217 485 c 0
217 986 m 0
EndSplineSet
EndChar

StartChar: trademark
Encoding: 8482 8482 468
Width: 1722
VWidth: 0
Flags: W
LayerCount: 2
Fore
SplineSet
813 527 m 1
 866 527 l 1
 866 1354 l 1
 1160 625 l 1
 1218 625 l 1
 1531 1348 l 1
 1531 527 l 1
 1589 527 l 1
 1589 1371 l 1
 1499 1371 l 1
 1196 676 l 1
 907 1371 l 1
 813 1371 l 1
 813 527 l 1
334 527 m 1
 391 527 l 1
 391 1322 l 1
 647 1322 l 1
 647 1371 l 1
 91 1371 l 1
 90 1322 l 1
 334 1322 l 1
 334 527 l 1
EndSplineSet
EndChar

StartChar: two
Encoding: 50 50 469
Width: 1089
VWidth: 0
Flags: W
LayerCount: 2
Fore
SplineSet
140 0 m 1
 109 111 l 1
 623 627 l 1
 753 761 823 812 823 995 c 0
 823 1173 732 1266 543 1266 c 0
 435 1266 355 1279 171 1154 c 1
 136 1257 l 1
 259 1335 354 1368 542 1368 c 0
 790 1368 935 1220 935 1012 c 0
 935 806 870 750 691 569 c 1
 217 100 l 1
 950 100 l 1
 945 0 l 1
 140 0 l 1
EndSplineSet
EndChar

StartChar: u
Encoding: 117 117 470
Width: 1056
VWidth: 0
Flags: W
LayerCount: 2
Fore
SplineSet
895 986 m 1
 781 986 l 1
 781 407 l 2
 781 379 780 348 774 317 c 0
 748 177 666 68 477 68 c 0
 304 68 253 202 253 376 c 2
 253 986 l 1
 139 986 l 1
 139 384 l 2
 139 112 247 -18 467 -18 c 0
 611 -18 734 51 788 180 c 1
 803 0 l 1
 895 0 l 1
 895 986 l 1
528 986 m 0
950 10 m 0
EndSplineSet
EndChar

StartChar: underscore
Encoding: 95 95 479
Width: 1007
VWidth: 0
Flags: W
LayerCount: 2
Fore
SplineSet
92 -280 m 1
 92 -193 l 1
 903 -193 l 1
 903 -280 l 1
 92 -280 l 1
EndSplineSet
EndChar

StartChar: uni00AD
Encoding: 173 173 482
Width: 1017
VWidth: 0
Flags: W
LayerCount: 2
Fore
SplineSet
126 127 m 1
 126 219 l 1
 887 219 l 1
 887 127 l 1
 126 127 l 1
EndSplineSet
EndChar

StartChar: uni00B2
Encoding: 178 178 483
Width: 683
VWidth: 0
Flags: W
LayerCount: 2
Fore
SplineSet
558 592 m 1
 120 592 l 1
 120 700 l 1
 315 919 457 1077 457 1186 c 0
 457 1252 416 1296 344 1296 c 0
 275 1296 228 1248 196 1167 c 1
 128 1244 l 1
 164 1350 248 1411 350 1411 c 0
 469 1411 560 1324 560 1188 c 0
 560 1021 431 878 268 708 c 1
 558 708 l 1
 558 592 l 1
EndSplineSet
EndChar

StartChar: uni01C4
Encoding: 452 452 484
Width: 2598
VWidth: 0
Flags: W
LayerCount: 2
Fore
SplineSet
230 1265 m 1
 230 82 l 1
 505 82 l 2
 902 82 1123 276 1123 669 c 0
 1123 1101 875 1265 479 1265 c 2
 230 1265 l 1
141 0 m 1
 141 1349 l 1
 496 1349 l 2
 931 1349 1214 1150 1214 673 c 0
 1214 223 961 0 525 0 c 2
 141 0 l 1
2272 1947 m 1
 2161 1583 l 1
 1964 1583 l 1
 1853 1947 l 1
 1910 1947 l 1
 2070 1588 l 1
 2213 1947 l 1
 2272 1947 l 1
1536 1349 m 1
 2401 1349 l 1
 2401 1279 l 1
 1607 87 l 1
 2409 87 l 1
 2400 0 l 1
 1506 0 l 1
 1506 92 l 1
 2283 1261 l 1
 1537 1261 l 1
 1536 1349 l 1
EndSplineSet
EndChar

StartChar: uni01C7
Encoding: 455 455 485
Width: 1586
VWidth: 0
Flags: W
LayerCount: 2
Fore
SplineSet
419 92 m 1
 415 0 l 1
 -277 0 l 1
 -277 1349 l 1
 -187 1349 l 1
 -187 92 l 1
 419 92 l 1
1797 -136 m 1
 1773 -25 l 1
 1743 -21 1830 -19 1813 -19 c 1
 2004 -19 2000 98 2000 226 c 2
 2000 1349 l 1
 2088 1349 l 1
 2088 268 l 2
 2088 0 2106 -130 1783 -130 c 1
 1806 -130 1774 -131 1797 -136 c 1
EndSplineSet
EndChar

StartChar: uni01CA
Encoding: 458 458 486
Width: 2051
VWidth: 0
Flags: W
LayerCount: 2
Fore
SplineSet
738 110 m 1
 739 60 742 322 742 393 c 2
 742 1349 l 1
 795 1349 l 1
 795 0 l 1
 714 0 l 1
 260 625 237 617 -212 1247 c 1
 -212 1247 -225 1200 -225 1034 c 2
 -225 0 l 1
 -278 0 l 1
 -278 1349 l 1
 -193 1349 l 1
 263 725 286 739 738 110 c 1
2586 -136 m 1
 2562 -25 l 1
 2532 -21 2619 -19 2602 -19 c 1
 2793 -19 2789 98 2789 226 c 2
 2789 1349 l 1
 2879 1349 l 1
 2879 268 l 2
 2879 0 2895 -130 2572 -130 c 1
 2595 -130 2563 -131 2586 -136 c 1
EndSplineSet
EndChar

StartChar: uni01F1
Encoding: 497 497 514
Width: 2598
VWidth: 0
Flags: W
LayerCount: 2
Fore
SplineSet
230 1265 m 1
 230 82 l 1
 505 82 l 2
 902 82 1123 276 1123 669 c 0
 1123 1101 875 1265 479 1265 c 2
 230 1265 l 1
141 0 m 1
 141 1349 l 1
 496 1349 l 2
 931 1349 1214 1150 1214 673 c 0
 1214 223 961 0 525 0 c 2
 141 0 l 1
1536 1349 m 1
 2401 1349 l 1
 2401 1279 l 1
 1607 87 l 1
 2409 87 l 1
 2400 0 l 1
 1506 0 l 1
 1506 92 l 1
 2283 1261 l 1
 1537 1261 l 1
 1536 1349 l 1
EndSplineSet
EndChar

StartChar: uni0237
Encoding: 567 567 561
Width: 384
VWidth: 0
Flags: W
LayerCount: 2
Fore
SplineSet
-64 -448 m 1
 -13 -448 l 2
 193 -448 237 -397 237 -178 c 2
 237 1005 l 1
 104 1005 l 1
 104 -126 l 2
 104 -283 142 -343 -42 -343 c 2
 -95 -343 l 1
 -64 -448 l 1
192 986 m 0
EndSplineSet
EndChar

StartChar: uni0307
Encoding: 775 775 563
Width: 272
VWidth: 0
Flags: W
LayerCount: 2
Fore
SplineSet
68 1238 m 1
 68 1397 l 1
 187 1397 l 1
 187 1238 l 1
 68 1238 l 1
128 986 m 0
EndSplineSet
EndChar

StartChar: uni030F
Encoding: 783 783 564
Width: 642
VWidth: 0
Flags: W
LayerCount: 2
Fore
SplineSet
319 1187 m 1
 143 1481 l 1
 177 1481 l 1
 352 1187 l 1
 319 1187 l 1
500 1187 m 1
 321 1481 l 1
 366 1481 l 1
 519 1187 l 1
 500 1187 l 1
331 986 m 0
EndSplineSet
EndChar

StartChar: uni0311
Encoding: 785 785 565
Width: 665
VWidth: 0
Flags: W
LayerCount: 2
Fore
SplineSet
187 1222 m 1
 130 1222 l 1
 130 1383 226 1465 322 1465 c 0
 420 1465 524 1382 524 1222 c 1
 465 1222 l 1
 465 1327 401 1378 325 1378 c 0
 247 1378 187 1328 187 1222 c 1
EndSplineSet
EndChar

StartChar: uni031B
Encoding: 795 795 566
Width: 437
VWidth: 0
Flags: W
LayerCount: 2
Fore
SplineSet
190 142 m 0
 164 142 134 144 106 147 c 1
 106 233 l 1
 120 233 136 231 151 231 c 0
 204 231 220 272 220 322 c 0
 220 367 207 419 193 456 c 1
 299 456 l 1
 318 411 328 364 328 319 c 0
 328 223 282 142 190 142 c 0
EndSplineSet
EndChar

StartChar: uni0326
Encoding: 806 806 567
Width: 278
VWidth: 0
Flags: W
LayerCount: 2
Fore
SplineSet
48 -621 m 1
 123 -183 l 1
 220 -183 l 1
 109 -621 l 1
 48 -621 l 1
134 0 m 0
EndSplineSet
EndChar

StartChar: uni2074
Encoding: 8308 8308 589
Width: 675
VWidth: 0
Flags: W
LayerCount: 2
Fore
SplineSet
405 1425 m 1
 476 1425 l 1
 476 904 l 1
 559 904 l 1
 564 837 l 1
 473 837 l 1
 474 632 l 1
 424 632 l 1
 424 837 l 1
 132 837 l 1
 132 907 l 1
 405 1425 l 1
426 1334 m 1
 171 904 l 1
 424 904 l 1
 426 1334 l 1
EndSplineSet
EndChar

StartChar: uni2206
Encoding: 8710 8710 590
Width: 1270
VWidth: 0
Flags: W
LayerCount: 2
Fore
SplineSet
1173 78 m 1
 1173 0 l 1
 99 0 l 1
 99 78 l 1
 550 1402 l 1
 723 1402 l 1
 1173 78 l 1
602 1087 m 1
 282 158 l 1
 990 158 l 1
 664 1087 l 1
 632 1194 l 1
 602 1087 l 1
EndSplineSet
EndChar

StartChar: uniFB01
Encoding: 64257 64257 591
Width: 1131
VWidth: 0
Flags: W
LayerCount: 2
Fore
SplineSet
180 918 m 1
 180 988 l 1
 320 988 l 1
 320 1037 l 1
 329 1355 438 1389 623 1389 c 2
 688 1389 l 1
 705 1319 l 1
 609 1319 l 2
 422 1319 406 1240 405 1012 c 1
 405 988 l 1
 958 988 l 1
 958 0 l 1
 876 0 l 1
 876 928 l 1
 405 928 l 1
 405 0 l 1
 320 0 l 1
 320 918 l 1
 180 918 l 1
876 1209 m 1
 876 1364 l 1
 958 1364 l 1
 958 1209 l 1
 876 1209 l 1
EndSplineSet
EndChar

StartChar: upsilon
Encoding: 965 965 593
Width: 484
VWidth: 0
Flags: W
LayerCount: 2
Fore
SplineSet
229 485 m 0
 152 485 113 542 113 600 c 0
 113 658 152 715 229 715 c 0
 307 715 346 658 346 600 c 0
 346 542 307 485 229 485 c 0
243 986 m 0
EndSplineSet
EndChar

StartChar: upsilondieresis
Encoding: 971 971 594
Width: 484
VWidth: 0
Flags: W
LayerCount: 2
Fore
SplineSet
229 485 m 0
 152 485 113 542 113 600 c 0
 113 658 152 715 229 715 c 0
 307 715 346 658 346 600 c 0
 346 542 307 485 229 485 c 0
EndSplineSet
EndChar

StartChar: upsilondieresistonos
Encoding: 944 944 595
Width: 484
VWidth: 0
Flags: W
LayerCount: 2
Fore
SplineSet
229 485 m 0
 152 485 113 542 113 600 c 0
 113 658 152 715 229 715 c 0
 307 715 346 658 346 600 c 0
 346 542 307 485 229 485 c 0
EndSplineSet
EndChar

StartChar: upsilontonos
Encoding: 973 973 596
Width: 484
VWidth: 0
Flags: W
LayerCount: 2
Fore
SplineSet
229 485 m 0
 152 485 113 542 113 600 c 0
 113 658 152 715 229 715 c 0
 307 715 346 658 346 600 c 0
 346 542 307 485 229 485 c 0
EndSplineSet
EndChar

StartChar: v
Encoding: 118 118 599
Width: 963
VWidth: 0
Flags: W
LayerCount: 2
Fore
SplineSet
422 0 m 1
 543 0 l 1
 919 986 l 1
 806 986 l 1
 806 986 689 664 595 409 c 0
 554 295 482 106 482 106 c 1
 482 106 421 271 370 406 c 1
 157 986 l 1
 44 986 l 1
 422 0 l 1
EndSplineSet
EndChar

StartChar: w
Encoding: 119 119 600
Width: 1415
VWidth: 0
Flags: W
LayerCount: 2
Fore
SplineSet
50 986 m 1
 154 986 l 1
 378 112 l 1
 525 570 602 863 645 986 c 1
 775 986 l 1
 808 893 950 474 1064 116 c 1
 1267 986 l 1
 1367 986 l 1
 1113 0 l 1
 1020 0 l 1
 1034 -49 830 544 712 911 c 1
 570 436 433 0 433 0 c 1
 323 0 l 1
 50 986 l 1
708 986 m 0
EndSplineSet
EndChar

StartChar: x
Encoding: 120 120 605
Width: 936
VWidth: 0
Flags: W
LayerCount: 2
Fore
SplineSet
465 580 m 1
 771 985 l 1
 893 985 l 1
 516 496 l 1
 901 0 l 1
 794 0 l 1
 465 423 l 1
 142 0 l 1
 36 0 l 1
 411 500 l 1
 47 985 l 1
 153 985 l 1
 465 580 l 1
EndSplineSet
EndChar

StartChar: xi
Encoding: 958 958 606
Width: 484
VWidth: 0
Flags: W
LayerCount: 2
Fore
SplineSet
229 485 m 0
 152 485 113 542 113 600 c 0
 113 658 152 715 229 715 c 0
 307 715 346 658 346 600 c 0
 346 542 307 485 229 485 c 0
EndSplineSet
EndChar

StartChar: y
Encoding: 121 121 607
Width: 997
VWidth: 0
Flags: W
LayerCount: 2
Fore
SplineSet
86 -378 m 1
 154.356 -390.722 211.785 -396.563 260.533 -395.983 c 0
 437.853 -393.874 500.31 -306.814 556 -157 c 0
 576 -106 973 995 970 986 c 1
 852 986 l 1
 557 134 l 1
 150 986 l 1
 28 986 l 1
 511 22 l 1
 511 22 485 -69 470 -116 c 1
 432.707 -242.341 379.773 -305.543 242.425 -306.487 c 0
 199.31 -306.784 147.878 -300.946 86 -289 c 1
 86 -378 l 1
499 986 m 0
EndSplineSet
EndChar

StartChar: yen
Encoding: 165 165 611
Width: 1286
VWidth: 0
Flags: W
LayerCount: 2
Fore
SplineSet
601 361 m 1
 601 567 l 1
 268 567 l 1
 268 650 l 1
 581 650 l 1
 212 1353 l 1
 287 1353 l 1
 633 699 l 1
 989 1353 l 1
 1059 1353 l 1
 671 650 l 1
 980 650 l 1
 980 567 l 1
 661 567 l 1
 661 361 l 1
 982 361 l 1
 982 282 l 1
 661 282 l 1
 661 0 l 1
 601 0 l 1
 601 282 l 1
 266 282 l 1
 266 361 l 1
 601 361 l 1
EndSplineSet
EndChar

StartChar: z
Encoding: 122 122 613
Width: 736
VWidth: 0
Flags: W
LayerCount: 2
Fore
SplineSet
66 986 m 1
 684 986 l 1
 684 895 l 1
 124 73 l 1
 702 73 l 1
 702 0 l 1
 45 0 l 1
 45 90 l 1
 602 908 l 1
 66 908 l 1
 66 986 l 1
373 986 m 0
EndSplineSet
EndChar

StartChar: zero
Encoding: 48 48 617
Width: 1150
VWidth: 0
Flags: W
LayerCount: 2
Fore
SplineSet
581 63 m 0
 773 63 908 224 908 675 c 0
 908 1137 773 1273 581 1273 c 0
 388 1273 241 1098 243 673 c 1
 243 223 389 63 581 63 c 0
581 -31 m 0
 278 -31 132 241 132 670 c 0
 132 1126 298 1368 581 1368 c 0
 863 1368 1018 1128 1018 670 c 0
 1018 241 884 -31 581 -31 c 0
EndSplineSet
EndChar

StartChar: zeta
Encoding: 950 950 618
Width: 484
VWidth: 0
Flags: W
LayerCount: 2
Fore
SplineSet
229 485 m 0
 152 485 113 542 113 600 c 0
 113 658 152 715 229 715 c 0
 307 715 346 658 346 600 c 0
 346 542 307 485 229 485 c 0
EndSplineSet
EndChar
